<?xml version="1.0" encoding="UTF-8" standalone="no"?>
<svg
   xmlns:dc="http://purl.org/dc/elements/1.1/"
   xmlns:cc="http://creativecommons.org/ns#"
   xmlns:rdf="http://www.w3.org/1999/02/22-rdf-syntax-ns#"
   xmlns:svg="http://www.w3.org/2000/svg"
   xmlns="http://www.w3.org/2000/svg"
   xmlns:sodipodi="http://sodipodi.sourceforge.net/DTD/sodipodi-0.dtd"
   xmlns:inkscape="http://www.inkscape.org/namespaces/inkscape"
   width="64"
   height="71.999969"
   viewBox="0 0 64 71.999969"
   version="1.1"
   preserveAspectRatio="xMidYMid"
   id="svg10"
   sodipodi:docname="clogo.svg"
   inkscape:version="0.92.5 (2060ec1f9f, 2020-04-08)">
  <metadata
     id="metadata16">
    <rdf:RDF>
      <cc:Work
         rdf:about="">
        <dc:format>image/svg+xml</dc:format>
        <dc:type
           rdf:resource="http://purl.org/dc/dcmitype/StillImage" />
        <dc:title></dc:title>
      </cc:Work>
    </rdf:RDF>
  </metadata>
  <defs
     id="defs14" />
  <sodipodi:namedview
     pagecolor="#ffffff"
     bordercolor="#666666"
     borderopacity="1"
     objecttolerance="10"
     gridtolerance="10"
     guidetolerance="10"
     inkscape:pageopacity="0"
     inkscape:pageshadow="2"
     inkscape:window-width="2560"
     inkscape:window-height="1424"
     id="namedview12"
     showgrid="false"
     fit-margin-top="0"
     fit-margin-left="0"
     fit-margin-right="0"
     fit-margin-bottom="0"
     inkscape:zoom="0.32"
     inkscape:cx="8.1435235"
     inkscape:cy="711.62048"
     inkscape:window-x="0"
     inkscape:window-y="50"
     inkscape:window-maximized="1"
     inkscape:current-layer="svg10" />
  <g
     id="g8"
     transform="matrix(0.25,0,0,0.25,0,-0.24999889)">
    <path
       d="M 255.987,85.672 C 255.985,80.829 254.95,76.55 252.858,72.878 250.803,69.266 247.724,66.24 243.596,63.846 209.515,44.176 175.401,24.566 141.332,4.876 132.147,-0.431 123.241,-0.238 114.124,5.146 100.559,13.154 32.643,52.102 12.405,63.835 4.071,68.665 0.015,76.056 0.013,85.663 0,125.221 0.013,164.777 0,204.336 c 0.002,4.736 0.993,8.932 2.993,12.55 2.056,3.72 5.177,6.83 9.401,9.278 20.239,11.733 88.164,50.678 101.726,58.688 9.121,5.387 18.027,5.579 27.215,0.27 34.07,-19.691 68.186,-39.3 102.272,-58.97 4.224,-2.447 7.345,-5.559 9.401,-9.276 1.997,-3.618 2.99,-7.814 2.992,-12.551 0,0 0,-79.094 -0.013,-118.653"
       id="path2"
       inkscape:connector-curvature="0"
       style="fill:#a9b9cb" />
    <path
       d="M 141.101,5.134 C 131.931,-0.16 123.04,0.033 113.938,5.403 100.395,13.39 32.59,52.237 12.385,63.94 4.064,68.757 0.015,76.129 0.013,85.711 0,125.166 0.013,164.62 0,204.076 c 0.002,4.724 0.991,8.909 2.988,12.517 2.053,3.711 5.169,6.813 9.386,9.254 4.629,2.681 11.759,6.788 20.159,11.62 L 219.625,50.375 C 193.447,35.301 167.262,20.239 141.101,5.134"
       id="path4"
       inkscape:connector-curvature="0"
       style="fill:#7f8b99" />
    <path
       d="m 154.456,126.968 39.839,0.281 C 194.295,110.65 177.493,70 129.322,70 98.631,70 57.371,89.512 57.371,145.61 c 0,56.097 40.447,74.39 71.951,74.39 51.017,0 63.21,-35.302 63.21,-55.252 l -38.007,-2.173 c 0,0 1.017,23.075 -25.406,23.075 -24.39,0 -28.46,-29.878 -28.46,-40.04 0,-15.447 5.493,-40.244 28.46,-40.244 22.968,0 25.337,21.602 25.337,21.602"
       id="path6"
       inkscape:connector-curvature="0"
       style="fill:#ffffff" />
  </g>
</svg>
