<?xml version="1.0" encoding="UTF-8" standalone="no"?>
<!-- Generator: Adobe Illustrator 19.0.0, SVG Export Plug-In . SVG Version: 6.00 Build 0)  -->

<svg
   xmlns:dc="http://purl.org/dc/elements/1.1/"
   xmlns:cc="http://creativecommons.org/ns#"
   xmlns:rdf="http://www.w3.org/1999/02/22-rdf-syntax-ns#"
   xmlns:svg="http://www.w3.org/2000/svg"
   xmlns="http://www.w3.org/2000/svg"
   xmlns:sodipodi="http://sodipodi.sourceforge.net/DTD/sodipodi-0.dtd"
   xmlns:inkscape="http://www.inkscape.org/namespaces/inkscape"
   version="1.1"
   id="Capa_1"
   x="0px"
   y="0px"
   viewBox="0 0 160.0725 178.57415"
   xml:space="preserve"
   sodipodi:docname="javalogo.svg"
   width="160.07249"
   height="178.57414"
   inkscape:version="0.92.5 (2060ec1f9f, 2020-04-08)"><metadata
   id="metadata87"><rdf:RDF><cc:Work
       rdf:about=""><dc:format>image/svg+xml</dc:format><dc:type
         rdf:resource="http://purl.org/dc/dcmitype/StillImage" /><dc:title /></cc:Work></rdf:RDF></metadata><defs
   id="defs85" /><sodipodi:namedview
   pagecolor="#ffffff"
   bordercolor="#666666"
   borderopacity="1"
   objecttolerance="10"
   gridtolerance="10"
   guidetolerance="10"
   inkscape:pageopacity="0"
   inkscape:pageshadow="2"
   inkscape:window-width="2560"
   inkscape:window-height="1424"
   id="namedview83"
   showgrid="false"
   fit-margin-top="0"
   fit-margin-left="0"
   fit-margin-right="0"
   fit-margin-bottom="0"
   inkscape:zoom="1.8781137"
   inkscape:cx="-131.81497"
   inkscape:cy="103.52101"
   inkscape:window-x="0"
   inkscape:window-y="50"
   inkscape:window-maximized="1"
   inkscape:current-layer="Capa_1" />
<g
   id="g50"
   transform="matrix(0.32471412,0,0,0.32471412,-1.5694708,7.6811395)"
   style="fill:#ffffff;fill-opacity:1">
	<g
   id="g18"
   style="fill:#ffffff;fill-opacity:1">
		<path
   style="fill:#ffffff;fill-opacity:1"
   d="m 240.864,269.894 c 0,0 -28.02,-53.992 -26.985,-93.445 0.755,-28.193 64.324,-56.062 89.281,-96.529 C 328.074,39.431 300.054,0 300.054,0 c 0,0 6.234,29.077 -10.376,59.147 -16.609,30.113 -77.914,47.779 -101.749,99.679 -23.835,51.9 52.935,111.068 52.935,111.068 z"
   id="path2"
   inkscape:connector-curvature="0" />
		<path
   style="fill:#ffffff;fill-opacity:1"
   d="m 345.741,105.869 c 0,0 -95.494,36.347 -95.494,77.849 0,41.545 25.928,55.027 30.113,68.509 4.142,13.525 -7.269,36.347 -7.269,36.347 0,0 37.361,-25.95 31.105,-56.062 -6.234,-30.113 -35.29,-39.475 -18.659,-69.544 11.109,-20.169 60.204,-57.099 60.204,-57.099 z"
   id="path4"
   inkscape:connector-curvature="0" />
		<path
   style="fill:#ffffff;fill-opacity:1"
   d="m 230.51,324.748 c 88.246,-3.149 120.43,-30.997 120.43,-30.997 -57.076,15.553 -208.654,14.539 -209.711,3.128 -1.014,-11.411 46.701,-20.773 46.701,-20.773 0,0 -74.721,0 -80.955,18.68 -6.235,18.681 35.353,33.047 123.535,29.962 z"
   id="path6"
   inkscape:connector-curvature="0" />
		<path
   style="fill:#ffffff;fill-opacity:1"
   d="m 358.187,368.494 c 0,0 86.369,-18.421 77.827,-65.338 -10.354,-57.119 -70.58,-24.936 -70.58,-24.936 0,0 42.602,0 46.722,25.928 4.164,25.95 -53.969,64.346 -53.969,64.346 z"
   id="path8"
   inkscape:connector-curvature="0" />
		<path
   style="fill:#ffffff;fill-opacity:1"
   d="m 315.628,343.601 c 0,0 -21.765,5.716 -54.013,9.34 -43.228,4.853 -95.494,1.014 -99.657,-6.256 -4.098,-7.269 7.269,-11.411 7.269,-11.411 -51.921,12.468 -23.512,34.233 37.339,38.418 52.158,3.559 129.791,-15.574 129.791,-15.574 z"
   id="path10"
   inkscape:connector-curvature="0" />
		<path
   style="fill:#ffffff;fill-opacity:1"
   d="m 181.738,388.943 c 0,0 -23.555,0.669 -24.936,13.137 -1.359,12.382 14.496,23.512 72.65,26.964 58.133,3.451 98.988,-15.898 98.988,-15.898 l -26.295,-15.962 c 0,0 -16.631,3.494 -42.236,6.946 -25.626,3.473 -78.173,-2.783 -80.243,-7.593 -2.113,-4.855 2.072,-7.594 2.072,-7.594 z"
   id="path12"
   inkscape:connector-curvature="0" />
		<path
   style="fill:#ffffff;fill-opacity:1"
   d="m 407.994,445.005 c 8.995,-9.707 -2.783,-17.321 -2.783,-17.321 0,0 4.142,4.853 -1.337,10.376 -5.544,5.522 -56.084,19.349 -137.061,23.512 -80.955,4.163 -168.856,-7.615 -171.639,-17.99 -2.696,-10.376 45.018,-18.659 45.018,-18.659 -5.522,0.69 -71.96,2.071 -74.074,20.082 -2.071,17.968 29.056,32.507 153.67,32.507 124.551,-0.021 179.254,-22.865 188.206,-32.507 z"
   id="path14"
   inkscape:connector-curvature="0" />
		<path
   style="fill:#ffffff;fill-opacity:1"
   d="m 359.568,485.817 c -54.682,11.044 -220.734,4.077 -220.734,4.077 0,0 107.919,25.626 231.109,4.185 58.888,-10.268 62.318,-38.763 62.318,-38.763 0,0 -18.011,19.392 -72.693,30.501 z"
   id="path16"
   inkscape:connector-curvature="0" />
	</g>
	<g
   id="g20"
   style="fill:#ffffff;fill-opacity:1">
	</g>
	<g
   id="g22"
   style="fill:#ffffff;fill-opacity:1">
	</g>
	<g
   id="g24"
   style="fill:#ffffff;fill-opacity:1">
	</g>
	<g
   id="g26"
   style="fill:#ffffff;fill-opacity:1">
	</g>
	<g
   id="g28"
   style="fill:#ffffff;fill-opacity:1">
	</g>
	<g
   id="g30"
   style="fill:#ffffff;fill-opacity:1">
	</g>
	<g
   id="g32"
   style="fill:#ffffff;fill-opacity:1">
	</g>
	<g
   id="g34"
   style="fill:#ffffff;fill-opacity:1">
	</g>
	<g
   id="g36"
   style="fill:#ffffff;fill-opacity:1">
	</g>
	<g
   id="g38"
   style="fill:#ffffff;fill-opacity:1">
	</g>
	<g
   id="g40"
   style="fill:#ffffff;fill-opacity:1">
	</g>
	<g
   id="g42"
   style="fill:#ffffff;fill-opacity:1">
	</g>
	<g
   id="g44"
   style="fill:#ffffff;fill-opacity:1">
	</g>
	<g
   id="g46"
   style="fill:#ffffff;fill-opacity:1">
	</g>
	<g
   id="g48"
   style="fill:#ffffff;fill-opacity:1">
	</g>
</g>
<g
   id="g52"
   transform="translate(-168.35128,-165.22361)"
   style="fill:#ffffff;fill-opacity:1">
</g>
<g
   id="g54"
   transform="translate(-168.35128,-165.22361)"
   style="fill:#ffffff;fill-opacity:1">
</g>
<g
   id="g56"
   transform="translate(-168.35128,-165.22361)"
   style="fill:#ffffff;fill-opacity:1">
</g>
<g
   id="g58"
   transform="translate(-168.35128,-165.22361)"
   style="fill:#ffffff;fill-opacity:1">
</g>
<g
   id="g60"
   transform="translate(-168.35128,-165.22361)"
   style="fill:#ffffff;fill-opacity:1">
</g>
<g
   id="g62"
   transform="translate(-168.35128,-165.22361)"
   style="fill:#ffffff;fill-opacity:1">
</g>
<g
   id="g64"
   transform="translate(-168.35128,-165.22361)"
   style="fill:#ffffff;fill-opacity:1">
</g>
<g
   id="g66"
   transform="translate(-168.35128,-165.22361)"
   style="fill:#ffffff;fill-opacity:1">
</g>
<g
   id="g68"
   transform="translate(-168.35128,-165.22361)"
   style="fill:#ffffff;fill-opacity:1">
</g>
<g
   id="g70"
   transform="translate(-168.35128,-165.22361)"
   style="fill:#ffffff;fill-opacity:1">
</g>
<g
   id="g72"
   transform="translate(-168.35128,-165.22361)"
   style="fill:#ffffff;fill-opacity:1">
</g>
<g
   id="g74"
   transform="translate(-168.35128,-165.22361)"
   style="fill:#ffffff;fill-opacity:1">
</g>
<g
   id="g76"
   transform="translate(-168.35128,-165.22361)"
   style="fill:#ffffff;fill-opacity:1">
</g>
<g
   id="g78"
   transform="translate(-168.35128,-165.22361)"
   style="fill:#ffffff;fill-opacity:1">
</g>
<g
   id="g80"
   transform="translate(-168.35128,-165.22361)"
   style="fill:#ffffff;fill-opacity:1">
</g>
</svg>