<svg xmlns="http://www.w3.org/2000/svg" width="4297.171" height="1502.876" viewBox="0 0 1136.96 397.636"><path d="M36.294 322.327l32.632-82.076 54.479-1.848-67.154 85.055z" fill="#37235e" fill-rule="evenodd"/><g fill="none"><path d="M-33.21 234.924l920.231-45.286" stroke="#f1c901" stroke-width="10.054"/><path d="M-33.079 235.182l918.976-45.288" stroke="#37235e" stroke-width="7.673"/></g><path d="M108.156 215.972l-115.74 7.3" fill="none" stroke="#37235e" stroke-width="5.292"/><path d="M116.01 121.824l-7.149 7.81-7.148 7.81c-6.125 19.728-26.95 44.833-14.944 57.927l791.015-67.099-9.658-60.128c-110.307 12.77-223.52 38.517-217.14-31.57l-534.976 85.25" fill="#37235e" fill-rule="evenodd"/><path d="M-379.393 245.007l458.177-24.062" fill="none" stroke="#f1c901" stroke-width="1.217"/><path d="M958.475 105.557l250.935-35.978m-246.226 85.687l293.642 22.9" fill="none" stroke="#f1c901" stroke-width="7.938"/><g fill="none"><path d="M83.576 203.402l799.92-60.78" stroke="#f1c901" stroke-width="10.054"/><path d="M83.576 203.402l799.92-60.78" stroke="#37235e" stroke-width="7.673"/></g><g fill="none"><path d="M78.354 216.537l806.325-49.997" stroke="#f1c901" stroke-width="10.054"/><path d="M78.238 216.52l806.441-49.98" stroke="#37235e" stroke-width="7.673"/></g><path d="M683.371 222.983l197.253-6.512 7.209 157.065-205.743-14.594 1.281-135.96" fill="#37235e" fill-rule="evenodd" stroke="#37235e" stroke-width="7.937"/><path d="M873.674 65.066l28.964 3.997c22.807 25.661 37.586 59.315 53.26 94.839l16.029 106.988-7.787 107.103-76.307-4.457c1.37-114.89 5.738-217.78-15.468-308.096l-3.982.684" fill="#37235e" fill-rule="evenodd"/><path d="M86.637 195.702l605.936-51.31 191.125-16.118m-926.03 115.549l730.699-24.58 199.94-7.07" fill="none" stroke="#f1c901" stroke-width="1.535"/><path d="M650.987 36.574c-13.32 72.853 112.295 40.914 215.697 28.247m21.149 308.716l38.278 2.235s.634-287.062-59.427-310.951c0 0 30.689.635 35.954 4.242 10.745 3.022 95.585 100.643 61.502 308.93l-37.098-2.167" fill="none" stroke="#fff" stroke-width="7.938"/><path d="M929.746 101.928l28.126-2.73 6.276 97.26c-.409-5.363-16.264-65.587-34.402-94.53" fill="none" stroke="#fff" stroke-width="7.567"/><g style="line-height:125%"><path style="-inkscape-font-specification:'Russo One'" d="M128.538 249.941l26.786-.916c4.62-.158 6.784 1.359 6.451 4.585-.24 3.2-3.08 8.516-8.601 16.032l-7.27 9.896c-4.567 6.219-8.815 11.116-12.706 14.631-3.87 3.54-7.625 5.873-11.238 6.982l-11.117 27.12-13.551-.74 11.315-25.516-9.212-.227-19.204 24.81-11.669-.637 60.016-76.02m12.477 19.845c3.197-4.258 3.456-6.344.814-6.294l-12.98.243-17.31 22.362 13.128.084c2.673.017 5.691-2.206 9.014-6.63l7.334-9.765m52.243-1.737c3.052-4.481 3.085-6.672.14-6.613l-12.314.245c-2.851.056-5.813 2.257-8.925 6.642l-26.32 37.08c-3.48 4.902-3.775 7.428-.839 7.533l12.696.453c3.04.108 6.293-2.373 9.715-7.396l25.847-37.944m-11.936 38.325c-5.945 8.97-11.629 15.583-16.97 19.696-5.256 4.05-10.63 5.928-16.049 5.624l-18.844-1.057c-5.138-.288-7.396-2.508-6.827-6.614.67-4.125 4.138-10.481 10.312-18.973l26.58-36.563c5.48-7.539 10.454-12.927 14.991-16.27 4.613-3.4 9.343-5.179 14.246-5.352l17.929-.632c5.142-.182 7.748 1.4 7.778 4.78.13 3.357-2.385 8.946-7.63 16.86l-25.516 38.501m47.123-59.849l31.593-1.08c5.352-.184 8.31 1.377 8.837 4.719.58 3.314-1.216 8.55-5.456 15.778-2.843 4.845-5.94 8.855-9.273 11.993-3.303 3.072-6.42 5.239-9.335 6.487 3.538 1.873 4.011 6.498 1.335 13.983-1.006 2.74-2.576 5.942-4.718 9.615-5.203 8.922-10.478 15.552-15.753 19.748-5.305 4.22-10.863 6.18-16.601 5.866l-36.154-1.974 55.525-85.135m-.344 57.1c3.154-5.222 3.013-7.833-.375-7.885l-16.597-.255-11.424 18.05 16.8.577c3.432.117 6.783-2.517 10.003-7.849l1.593-2.638m18.71-35.09c2.882-4.743 2.658-7.061-.628-7l-13.731.258-10.419 16.462 13.9-.031c3.329-.008 6.485-2.455 9.424-7.293l1.455-2.395m67.198-2.055c2.6-5.031 2.015-7.484-1.707-7.41l-15.537.31c-3.59.07-6.721 2.536-9.437 7.446l-23.131 41.816c-3.08 5.567-2.765 8.447.997 8.582l16.303.581c3.912.14 7.374-2.683 10.332-8.407l22.18-42.918m-4.27 43.409c-5.057 10.251-10.466 17.82-16.154 22.523-5.603 4.633-11.967 6.76-18.996 6.366l-24.35-1.366c-6.614-.371-10.08-2.937-10.455-7.64-.254-4.715 2.44-11.949 7.977-21.58l23.66-41.16c4.843-8.423 9.627-14.435 14.42-18.168 4.868-3.792 10.335-5.788 16.47-6.005l22.506-.793c6.473-.228 10.242 1.518 11.264 5.286 1.142 3.746-.434 10.01-4.82 18.904L309.74 309.89m25.737 8.3l40.672 1.394-9.117 22.674-60.83-3.321 46.373-96.658 17.715-.605-34.813 76.516m122.416-53.577c1.818-5.683.32-8.443-4.444-8.348l-19.839.394c-4.575.091-7.851 2.87-9.879 8.397l-17.414 47.477c-2.338 6.375-1.09 9.688 3.803 9.863l21.263.759c5.116.182 8.756-3.058 10.862-9.638l15.648-48.904m7.782 49.545c-3.424 11.827-8.15 20.578-14.132 26.008-5.897 5.353-13.554 7.78-22.832 7.26l-31.997-1.795c-8.654-.486-13.864-3.487-15.7-8.927-1.677-5.44-.284-13.742 4.06-24.752l18.398-46.633c3.732-9.46 8.08-16.202 13.095-20.389 5.091-4.251 11.47-6.503 19.231-6.777l28.566-1.008c8.244-.29 13.63 1.643 16.108 5.861 2.634 4.203 2.543 11.259-.37 21.319l-14.427 49.833m85.528 36.179c-23.741 1.328-42.732 1.564-57.234.75-9.486-.532-15.623-3.748-18.473-9.563-2.792-5.695-2.593-14.21.487-25.388l13.906-50.472c2.804-10.18 6.753-17.422 11.879-21.919 5.203-4.563 12.218-6.986 21.164-7.292l48.056-1.643-3.545 20.702-44.004.825c-5.297.1-8.646 3.092-10.096 9.05L500.82 316.85c-.645 2.65-.554 4.814.281 6.487.964 1.569 2.45 2.393 4.457 2.464l6.641.237c2.45-.032 5.006-.061 7.67-.087l8.05-.078c2.804-.022 6.393-.14 10.776-.352 4.51-.21 10.128-.446 16.88-.708l-4.372 25.524m95.506-88.176c.393-6.53-2.594-9.688-8.913-9.562l-26.236.522c-6.03.12-9.41 3.302-10.186 9.629l-6.741 54.938c-.915 7.46 1.911 11.36 8.541 11.597l28.913 1.031c6.981.25 10.735-3.554 11.2-11.296l3.422-56.859m28.57 57.735c-.268 13.981-3.461 24.354-9.61 30.779-6.072 6.342-15.625 9.168-28.446 8.45l-43.951-2.467c-11.817-.663-19.848-4.272-24.17-10.723-4.1-6.427-5.063-16.174-3.013-29.028l8.583-53.81c1.722-10.794 5.165-18.468 10.344-23.238 5.254-4.839 12.882-7.423 23.022-7.78l37.48-1.322c10.864-.383 18.74 1.78 23.58 6.571 5.056 4.785 7.517 12.868 7.295 24.448l-1.114 58.12" aria-label="ROBOLOCO" font-weight="400" font-size="50.8" font-family="Russo One" letter-spacing="0" word-spacing="0" fill="#f1c901"/></g><path d="M-403.164 297.07l439.458 25.257" fill="none" stroke="#fff" stroke-width="7.937"/><path d="M-365.471 244.484c112.632-7.66 224.46-15.11 337.052-23.086 35.454-2.512 71.826-4.317 107.236-7.177" fill="none" stroke="#37235e" stroke-width="3.969"/><path d="M-395.265 245.705l479.751-37.916" opacity=".99" fill="none" stroke="#f1c901" stroke-width="1.164"/><path d="M-3.982 203.277l91.776-7.673" fill="none" stroke="#f1c901" stroke-width="1.535"/><path d="M73.132 128.421l-1.278 20.691 37.662-4.821 2.92-18.562z" fill="#37235e" fill-rule="evenodd" stroke="#37235e" stroke-width=".265"/><path d="M-803.757 271.927v-8.6L116.01 121.824 36.294 322.326z" fill="none"/><path d="M-357.963 193.707l478.073-72.536" fill="none" stroke="#fff" stroke-width="7.937"/><path d="M80.86 201.164l-81.827 6.495" fill="none" stroke="#37235e" stroke-width="3.387"/><path d="M-391.083 240.599l475.448-41.681" fill="none" stroke="#f1c901" stroke-width="1.217"/><path d="M-23.707 218.886l102.652-6.87" opacity=".99" fill="none" stroke="#f1c901" stroke-width="1.164"/><path d="M99.465 203.514l-106.89 8.222" fill="none" stroke="#37235e" stroke-width="5"/><g style="line-height:125%"><path d="M349.632 168.892c-12.2 1.024-25.408 1.418-39.541 1.203v-14.288c15.404-.454 27.196-1.07 35.127-1.845 1.688-.165 3.013-.77 3.971-1.814 1.035-1.127 1.553-2.534 1.553-4.218v-5.492c0-4.393-2.216-6.338-6.622-5.838l-30.928 3.51V96.593l52.172-8.028v15.579l-33.182 4.648v14.041l17.45-2.22c7.287-.928 12.701.047 16.188 2.948 3.508 2.845 5.27 7.666 5.27 14.451v7.83c0 7.306-1.762 12.836-5.27 16.57-3.487 3.712-8.901 5.868-16.188 6.48m70.651-5.931c-13.788 1.158-28.691 1.65-44.615 1.5v-15.16c17.357-.582 30.664-1.312 39.624-2.188 1.908-.186 3.406-.838 4.49-1.955 1.17-1.205 1.755-2.704 1.755-4.496v-4.672c0-4.672-2.506-6.726-7.486-6.166l-25.474 2.866v-15.899l23-2.905c4.959-.626 7.454-3.272 7.454-7.935v-2.331c0-4.662-2.495-6.644-7.454-5.95l-34.747 4.868V86.801l40.952-6.301c8.209-1.263 14.312-.434 18.245 2.513 3.958 2.889 5.947 7.944 5.947 15.152 0 4.753-1.212 8.791-3.627 12.104-2.32 3.21-5.4 5.636-9.228 7.28 6.908.896 11.643 4.6 14.156 11.128.868 2.364 1.303 5.175 1.303 8.43v1.19c0 7.78-1.997 13.678-5.973 17.676-3.95 3.971-10.079 6.296-18.322 6.988m78.824-6.616c-15.671 1.315-32.584 1.927-50.622 1.86v-16.128c19.664-.736 34.765-1.605 44.946-2.6 2.17-.212 3.873-.917 5.106-2.116 1.33-1.294 1.996-2.898 1.996-4.808v-4.983c0-4.984-2.85-7.155-8.513-6.518l-28.914 3.253v-16.926l26.102-3.297c5.637-.712 8.475-3.556 8.475-8.528v-2.487c0-4.972-2.838-7.06-8.475-6.27l-39.408 5.52V75.574l46.463-7.15c9.338-1.436 16.287-.619 20.767 2.485 4.512 3.04 6.78 8.418 6.78 16.116 0 5.075-1.382 9.398-4.136 12.957-2.644 3.447-6.152 6.064-10.511 7.852 7.867.896 13.265 4.812 16.13 11.761.99 2.518 1.486 5.516 1.486 8.992v1.272c0 8.308-2.278 14.621-6.81 18.915-4.5 4.264-11.482 6.783-20.862 7.57m73.823-44.394c-6.357.715-9.513 3.685-9.513 8.917v5.23c0 2.006.683 3.55 2.05 4.637 1.475.99 3.43 1.367 5.867 1.129l24.328-2.378c2.537-.247 4.529-1.025 5.97-2.332 1.558-1.411 2.337-3.152 2.337-5.218v-5.391c0-5.391-3.335-7.711-9.956-6.966l-21.084 2.372m3.201-38.65c-6.387.9-9.557 3.97-9.557 9.214v3.932c0 5.244 3.17 7.465 9.557 6.659l14.596-1.843c6.59-.833 9.908-3.94 9.908-9.318V77.91c0-5.378-3.319-7.598-9.908-6.669L576.13 73.3m58.604 45.477c0 9.003-2.674 15.862-7.993 20.55-5.278 4.654-13.46 7.433-24.441 8.355l-37.307 3.132c-10.228.858-17.643-.5-22.337-4.047-4.66-3.521-6.979-9.456-6.979-17.822v-1.28c0-6.488 1.914-12.082 5.76-16.803 3.051-3.792 7.245-6.617 12.603-8.474-4.639-.731-8.378-2.51-11.232-5.332-2.74-2.909-4.106-6.925-4.106-12.059v-1.283c0-7.787 2.329-13.906 7.011-18.382 4.716-4.594 12.166-7.69 22.443-9.282l30.817-4.772c10.928-1.692 19.07-.91 24.321 2.385 5.293 3.228 7.954 9.021 7.954 17.36v1.375c0 5.498-1.621 10.198-4.852 14.085-3.102 3.764-7.215 6.636-12.323 8.619 9.221.885 15.554 5.068 18.916 12.568 1.163 2.718 1.745 5.962 1.745 9.729v1.378" style="-inkscape-font-specification:'Russo One'" aria-label="5338" font-weight="400" font-size="50.8" font-family="Russo One" letter-spacing="0" word-spacing="0" fill="#f1c901"/></g><path d="M116.01 121.824l617.18-98.35S842.098.743 868.15 68.694c30.198 78.767 19.683 304.843 19.683 304.843L682.09 358.942l1.281-135.96-556.952 18.388L58.6 323.591l-22.306-1.265" fill="none" stroke="#fff" stroke-width="7.938"/><path d="M238.178 117.523l-265.93 37.24m195.746-8.071l-198.475 24.563m226.293 1.102L-.07 192.459m227.76-43.12L.199 176.231m222.965-16.447l-256.316 27.613m250.769-7.495l-253.385 23.302m270.402-74.932L-.403 159.371" fill="none" stroke="#37235e" stroke-width="5.292"/><path d="M63.466 159.628l-.588 8.83 36.263-4.206.084-9.05z" fill="#37235e" fill-rule="evenodd" stroke="#37235e" stroke-width=".265"/><path d="M75.21 175.724l-1.204 8.69 26.751-2.648.444-8.843z" fill="#37235e" fill-rule="evenodd" stroke="#37235e" stroke-width=".265" opacity=".99"/><path d="M34.489 1262.766l165.761-4.926m-80.854 23.483l71.735-.288m-156.868-8.75l161.306-2.54m-161.731 20.402l153.078 1.61m-153.469 14.84l145.646 5.057m-59.547-11.484l63.362 1.78m-149.645 12.394l142.194 6.559m-142.371.893l138.9 7.933" transform="matrix(.99993 0 0 1.02198 -121.438 -1042.322)" fill="none" stroke="#37235e" stroke-width="5.292"/><path d="M17.377 245.027l-1.465 11.237 53.104-.854 3.91-12.071z" fill="#37235e" fill-rule="evenodd" stroke="#37235e" stroke-width=".265"/><path d="M5.983 267.018l-.182 10.163 59.664.641 4.214-10.956z" fill="#37235e" fill-rule="evenodd"/><path d="M23.235 287.347l-4.573 9.427-9.401 8.726 44.746 2.11 7.45-19.37z" fill="#37235e" fill-rule="evenodd" stroke="#37235e" stroke-width=".265"/><path d="M0 0v397.636h1136.959V0z" fill="none" stroke="#000" stroke-width=".265"/><path d="M-427.628 294.493l38.02-94.882 505.618-77.787-79.715 200.502z" fill="none"/></svg>