<?xml version="1.0" encoding="UTF-8" standalone="no"?>
<!-- Created with Inkscape (http://www.inkscape.org/) -->

<svg
   xmlns:dc="http://purl.org/dc/elements/1.1/"
   xmlns:cc="http://creativecommons.org/ns#"
   xmlns:rdf="http://www.w3.org/1999/02/22-rdf-syntax-ns#"
   xmlns:svg="http://www.w3.org/2000/svg"
   xmlns="http://www.w3.org/2000/svg"
   xmlns:sodipodi="http://sodipodi.sourceforge.net/DTD/sodipodi-0.dtd"
   xmlns:inkscape="http://www.inkscape.org/namespaces/inkscape"
   width="220.53448mm"
   height="209.68503mm"
   viewBox="0 0 220.53448 209.68503"
   version="1.1"
   id="svg924"
   inkscape:version="0.92.5 (2060ec1f9f, 2020-04-08)"
   sodipodi:docname="drawing.svg">
  <defs
     id="defs918" />
  <sodipodi:namedview
     id="base"
     pagecolor="#ffffff"
     bordercolor="#666666"
     borderopacity="1.0"
     inkscape:pageopacity="0.0"
     inkscape:pageshadow="2"
     inkscape:zoom="0.35"
     inkscape:cx="-321.33184"
     inkscape:cy="321.80641"
     inkscape:document-units="mm"
     inkscape:current-layer="layer1"
     showgrid="false"
     fit-margin-top="0"
     fit-margin-left="0"
     fit-margin-right="0"
     fit-margin-bottom="0"
     inkscape:window-width="2560"
     inkscape:window-height="1424"
     inkscape:window-x="0"
     inkscape:window-y="50"
     inkscape:window-maximized="1" />
  <metadata
     id="metadata921">
    <rdf:RDF>
      <cc:Work
         rdf:about="">
        <dc:format>image/svg+xml</dc:format>
        <dc:type
           rdf:resource="http://purl.org/dc/dcmitype/StillImage" />
        <dc:title></dc:title>
      </cc:Work>
    </rdf:RDF>
  </metadata>
  <g
     inkscape:label="Layer 1"
     inkscape:groupmode="layer"
     id="layer1"
     transform="translate(-0.35238394,-24.292911)">
    <path
       style="fill:#ffffff;stroke-width:0.26458332;fill-opacity:1"
       d="M 165.34324,233.68152 C 153.70549,231.78249 135.16486,224.11254 116.58676,213.51175 90.755365,198.7722 68.532075,181.3253 50.956055,161.9869 29.223455,138.07512 10.095175,107.77936 2.7947554,85.708069 c -3.63772997,-10.99791 -3.26257997,-18.08485 1.46642,-27.70242 3.85937,-7.848942 9.4468996,-14.406214 18.7953696,-22.057409 7.21441,-5.904576 11.50511,-8.532743 17.33021,-10.615189 3.00194,-1.073179 6.09057,-1.329163 8.52035,-0.706162 1.96973,0.505045 6.20301,2.600455 8.45615,4.185666 4.24005,2.983118 8.42905,7.174845 12.40169,12.409757 3.17541,4.18437 7.85164,11.228629 10.4388,15.725007 3.18978,5.54369 7.48869,14.30863 8.22126,16.76212 1.62599,5.44573 -0.54147,9.00925 -8.28061,13.61414 -5.64539,3.35908 -6.79675,3.94344 -11.8441,6.01141 -6.51513,2.66934 -8.82763,3.84654 -10.42623,5.30757 -2.94372,2.690391 -4.60258,7.794801 -3.86145,11.881871 0.75387,4.15732 6.47293,13.96984 12.64565,21.69685 4.74893,5.9447 9.80463,11.39975 17.41044,18.78567 11.62972,11.29349 22.530725,19.44391 37.967945,28.3877 5.69444,3.29917 6.61946,3.66097 9.7808,3.82551 3.77802,0.19665 6.94712,-0.89223 10.32851,-3.5488 2.71306,-2.13149 4.3549,-4.65742 8.85112,-13.61717 4.82987,-9.62462 8.95664,-15.05667 12.42059,-16.34918 2.00557,-0.74834 4.58976,-0.97121 6.54708,-0.56465 1.49352,0.31022 6.06955,2.48549 8.93138,4.24565 3.72468,2.29084 13.94699,9.12703 16.80104,11.23572 13.78137,10.18228 23.16249,19.00836 24.6186,23.16205 0.96697,2.75834 0.68899,7.037 -0.70476,10.84791 -2.04303,5.5862 -8.10492,13.54351 -14.89337,19.55018 -9.90026,8.76014 -17.82055,13.32609 -26.48297,15.26711 -2.61167,0.58521 -9.92207,0.71708 -12.89143,0.23254 z"
       id="path1534"
       inkscape:connector-curvature="0" />
  </g>
</svg>
