<?xml version="1.0" encoding="UTF-8" standalone="no"?>
<!-- Created with Inkscape (http://www.inkscape.org/) -->

<svg
   xmlns:dc="http://purl.org/dc/elements/1.1/"
   xmlns:cc="http://creativecommons.org/ns#"
   xmlns:rdf="http://www.w3.org/1999/02/22-rdf-syntax-ns#"
   xmlns:svg="http://www.w3.org/2000/svg"
   xmlns="http://www.w3.org/2000/svg"
   xmlns:sodipodi="http://sodipodi.sourceforge.net/DTD/sodipodi-0.dtd"
   xmlns:inkscape="http://www.inkscape.org/namespaces/inkscape"
   width="30.65675mm"
   height="30.65674mm"
   viewBox="0 0 30.65675 30.65674"
   version="1.1"
   id="svg9078"
   inkscape:version="0.92.0 r15299"
   sodipodi:docname="ncr.svg">
  <defs
     id="defs9072" />
  <sodipodi:namedview
     id="base"
     pagecolor="#ffffff"
     bordercolor="#666666"
     borderopacity="1.0"
     inkscape:pageopacity="0.0"
     inkscape:pageshadow="2"
     inkscape:zoom="4.6000624"
     inkscape:cx="57.934016"
     inkscape:cy="57.933997"
     inkscape:document-units="mm"
     inkscape:current-layer="layer1"
     showgrid="false"
     fit-margin-top="0"
     fit-margin-left="0"
     fit-margin-right="0"
     fit-margin-bottom="0"
     inkscape:window-width="1280"
     inkscape:window-height="744"
     inkscape:window-x="-4"
     inkscape:window-y="-4"
     inkscape:window-maximized="1" />
  <metadata
     id="metadata9075">
    <rdf:RDF>
      <cc:Work
         rdf:about="">
        <dc:format>image/svg+xml</dc:format>
        <dc:type
           rdf:resource="http://purl.org/dc/dcmitype/StillImage" />
        <dc:title></dc:title>
      </cc:Work>
    </rdf:RDF>
  </metadata>
  <g
     inkscape:label="Layer 1"
     inkscape:groupmode="layer"
     id="layer1"
     transform="translate(-37.588292,-197.76092)">
    <g
       id="g9105">
      <path
         inkscape:connector-curvature="0"
         id="path8616"
         style="fill:#51b948;fill-opacity:1;fill-rule:nonzero;stroke:none;stroke-width:0.35277778"
         d="m 37.588292,228.41766 h 30.65675 v -30.65674 h -30.65675 z" />
      <path
         d="m 55.589772,213.52635 c 0,0 -0.0494,-0.18062 -0.0494,-0.31432 v -2.09268 h 0.83855 v 4.03084 l -2.68358,-2.2218 c -0.14358,-0.12241 -0.22789,-0.25858 -0.22789,-0.25858 0,0 0.042,0.14993 0.042,0.2801 l -7.14e-4,2.10926 h -0.8382 v -4.01532 l 2.65854,2.1777 c 0.14217,0.121 0.2607,0.3048 0.2607,0.3048"
         style="fill:#ffffff;fill-opacity:1;fill-rule:nonzero;stroke:none;stroke-width:0.35277778"
         id="path8628"
         inkscape:connector-curvature="0" />
      <path
         d="m 63.179502,211.11931 c 1.327501,0 1.66793,0.52387 1.66793,1.2767 0,0.5461 -0.40181,1.07986 -1.21179,1.14336 l -0.0885,0.004 c 0,0 0.078,0.0141 0.15981,0.0931 l 1.47073,1.4224 h -1.13665 l -2.05281,-2.08456 h 1.0227 c 0.91546,0 0.94157,-0.48225 0.94827,-0.60466 0.0173,-0.31221 -0.0829,-0.56304 -0.7814,-0.56304 h -1.16876 v 3.25226 h -0.87136 v -3.93982 z"
         style="fill:#ffffff;fill-opacity:1;fill-rule:nonzero;stroke:none;stroke-width:0.35277778"
         id="path8632"
         inkscape:connector-curvature="0" />
      <path
         d="m 56.755842,213.14559 c 0,-1.65065 1.38183,-2.08386 2.54282,-2.08386 0.46496,0 0.87701,0.0413 1.30987,0.133 l 0.001,0.83679 c -0.249421,-0.0762 -0.750011,-0.24412 -1.31128,-0.24412 -1.100661,0 -1.63512,0.42756 -1.63512,1.35819 0,0.762 0.575729,1.24777 1.63512,1.24777 0.561269,0 1.12395,-0.13335 1.39594,-0.23424 l -10e-4,0.81209 c -0.43286,0.0917 -0.92957,0.14817 -1.39453,0.14817 -1.24001,0 -2.54282,-0.6029 -2.54282,-1.97379"
         style="fill:#ffffff;fill-opacity:1;fill-rule:nonzero;stroke:none;stroke-width:0.35277778"
         id="path8636"
         inkscape:connector-curvature="0" />
      <path
         d="m 47.323802,211.2207 0.81739,0.77011 c -0.0219,0.01 -0.0476,0.0219 -0.078,0.0374 -0.0469,0.0243 -0.10371,0.0575 -0.1711,0.10407 -0.13476,0.0931 -0.31079,0.24059 -0.53551,0.4833 l -1.59703,1.69051 c -0.2741,0.28928 -0.55245,0.51859 -0.81139,0.63959 l -0.81738,-0.76976 c 0.0222,-0.0102 0.0483,-0.0222 0.0776,-0.0381 0.0473,-0.0236 0.10407,-0.0571 0.17145,-0.10407 0.13441,-0.0928 0.3108,-0.23989 0.53516,-0.4826 l 1.59703,-1.68804 c 0.27411,-0.28928 0.5528,-0.52105 0.81174,-0.64241"
         style="fill:#ffffff;fill-opacity:1;fill-rule:nonzero;stroke:none;stroke-width:0.35277778"
         id="path8640"
         inkscape:connector-curvature="0" />
      <path
         d="m 44.159562,215.30773 c 0.3616,0 0.69356,-0.072 0.91899,-0.18874 0.10265,-0.0536 0.24976,-0.1464 0.37641,-0.24447 0.12594,-0.0984 0.30409,-0.25153 0.45544,-0.41205 l 1.59949,-1.68557 c 0.40287,-0.42509 0.64558,-0.55598 0.79234,-0.60748 l 0.82056,0.77646 c -0.17145,0.18345 -2.21262,2.35762 -2.21262,2.35762 -0.1397,0.15028 -0.2861,0.29492 -0.38559,0.38664 -0.0956,0.0885 -0.25964,0.21978 -0.34431,0.28187 -0.48013,0.35172 -1.12148,0.63712 -1.98543,0.63712 -1.95651,0 -3.53942,-1.59315 -3.53942,-3.42689 0,-2.27541 1.77765,-3.59551 3.39725,-3.59551 0.496,-0.0148 0.89429,0.0684 1.20861,0.17569 0.2914,0.0988 0.51118,0.21837 0.67028,0.29986 -0.18803,0.121 -0.37041,0.28504 -0.67133,0.60642 l -0.32773,0.35243 c -0.0755,-0.0289 -0.41064,-0.14535 -0.84103,-0.13265 -1.03857,0.0307 -2.17487,0.87313 -2.13395,2.25425 0.0381,1.29188 1.10314,2.165 2.20204,2.165"
         style="fill:#ffffff;fill-opacity:1;fill-rule:nonzero;stroke:none;stroke-width:0.35277778"
         id="path8644"
         inkscape:connector-curvature="0" />
      <path
         d="m 47.183462,211.05927 c -0.10336,0.0536 -0.25047,0.14605 -0.37712,0.24447 -0.12594,0.0981 -0.30409,0.25118 -0.45544,0.4117 l -1.59878,1.68592 c -0.40358,0.42475 -0.64594,0.55563 -0.7927,0.60748 l -0.82056,-0.77646 c 0.17145,-0.18344 2.21263,-2.35761 2.21263,-2.35761 0.1397,-0.14993 0.2861,-0.29457 0.38558,-0.387 0.0956,-0.0882 0.25965,-0.21943 0.34467,-0.28152 0.47942,-0.35172 1.12183,-0.63711 1.98543,-0.63711 1.95686,0 3.53906,1.59244 3.53906,3.42653 0,2.27577 -1.77764,3.59551 -3.39725,3.59551 -0.496,0.0148 -0.89429,-0.0688 -1.20896,-0.17569 -0.29175,-0.0991 -0.51188,-0.21907 -0.67134,-0.30056 0.19897,-0.13406 0.36971,-0.28187 0.67275,-0.60537 l 0.32773,-0.35242 c 0.0755,0.0286 0.41063,0.14534 0.84067,0.13299 1.03893,-0.031 2.17522,-0.87383 2.1343,-2.25495 -0.0385,-1.29152 -1.10384,-2.16465 -2.20239,-2.16465 -0.36195,0 -0.69286,0.0716 -0.91828,0.18874"
         style="fill:#ffffff;fill-opacity:1;fill-rule:nonzero;stroke:none;stroke-width:0.35277778"
         id="path8648"
         inkscape:connector-curvature="0" />
    </g>
  </g>
</svg>
