<svg xmlns="http://www.w3.org/2000/svg" viewBox="0 0 31.732 30.902"><path d="M8.713 29.987C3.594 27.444 0 21.618 0 15.866 0 7.306 7.305 0 15.866 0c8.56 0 15.866 7.305 15.866 15.866 0 5.78-3.609 11.606-8.758 14.138-2.979 1.465-2.98 1.463-3.141-2.5-.077-1.894-.275-3.55-.463-3.882-.454-.797-.46-.788.751-.982 1.551-.248 3.542-1.333 4.322-2.357 1.826-2.393 2.024-6.35.445-8.877-.238-.383-.362-1.128-.32-1.924.038-.715-.01-1.654-.104-2.088-.23-1.048-1.127-1.05-3.195-.007-1.358.685-1.683.752-2.617.536-1.37-.317-4.203-.317-5.573 0-.934.216-1.258.15-2.616-.536-2.069-1.043-2.965-1.041-3.195.007-.095.434-.142 1.373-.104 2.088.042.796-.082 1.541-.32 1.924-.802 1.283-1.032 2.152-1.032 3.896 0 2.382.621 4.11 1.96 5.446 1.044 1.043 3.169 1.997 4.448 1.997.397 0 .481.114.34.463-.103.255-.302.779-.442 1.164-.425 1.173-2.27 1.374-3.698.404-.498-.338-1.05-.566-1.228-.507-.177.06-.322-.028-.322-.195 0-.166.119-.228.265-.138.145.09.264.052.264-.085 0-.354-.72-.904-.857-.654-.063.115-.082.07-.041-.102.095-.405-.387-.793-1.257-1.012-1.086-.272-1.228.354-.253 1.117.461.36 1.132 1.236 1.492 1.946.828 1.634 1.848 2.207 3.904 2.192l1.532-.011-.077 1.744c-.097 2.193-.388 2.278-3.129.916zm1.332-4.067a.265.265 0 0 1 .53 0c0 .145-.12.265-.265.265a.265.265 0 0 1-.265-.265zm-1.323-.28c0-.154.12-.207.265-.117.145.09.264.216.264.28 0 .064-.119.117-.264.117a.273.273 0 0 1-.265-.28zm2.596.1c.191-.077.42-.068.507.02.088.088-.068.15-.347.14-.308-.014-.37-.076-.16-.16zm-3.654-.614a.265.265 0 0 1 .529 0 .265.265 0 0 1-.53 0z" fill="#fff"/></svg>