<?xml version="1.0" encoding="UTF-8" standalone="no"?>
<!-- Created with Inkscape (http://www.inkscape.org/) -->

<svg
   xmlns:dc="http://purl.org/dc/elements/1.1/"
   xmlns:cc="http://creativecommons.org/ns#"
   xmlns:rdf="http://www.w3.org/1999/02/22-rdf-syntax-ns#"
   xmlns:svg="http://www.w3.org/2000/svg"
   xmlns="http://www.w3.org/2000/svg"
   xmlns:sodipodi="http://sodipodi.sourceforge.net/DTD/sodipodi-0.dtd"
   xmlns:inkscape="http://www.inkscape.org/namespaces/inkscape"
   width="26.458332mm"
   height="32.829987mm"
   viewBox="0 0 26.458332 32.829987"
   version="1.1"
   id="svg1043"
   inkscape:version="0.92.5 (2060ec1f9f, 2020-04-08)"
   sodipodi:docname="resume-icon.svg">
  <defs
     id="defs1037" />
  <sodipodi:namedview
     id="base"
     pagecolor="#ffffff"
     bordercolor="#666666"
     borderopacity="1.0"
     inkscape:pageopacity="0.0"
     inkscape:pageshadow="2"
     inkscape:zoom="5.6"
     inkscape:cx="42.357621"
     inkscape:cy="44.141671"
     inkscape:document-units="mm"
     inkscape:current-layer="layer1"
     showgrid="false"
     fit-margin-top="0"
     fit-margin-left="0"
     fit-margin-right="0"
     fit-margin-bottom="0"
     inkscape:window-width="2560"
     inkscape:window-height="1424"
     inkscape:window-x="0"
     inkscape:window-y="50"
     inkscape:window-maximized="1" />
  <metadata
     id="metadata1040">
    <rdf:RDF>
      <cc:Work
         rdf:about="">
        <dc:format>image/svg+xml</dc:format>
        <dc:type
           rdf:resource="http://purl.org/dc/dcmitype/StillImage" />
        <dc:title />
      </cc:Work>
    </rdf:RDF>
  </metadata>
  <g
     inkscape:label="Layer 1"
     inkscape:groupmode="layer"
     id="layer1"
     transform="translate(-25.636194,-174.35408)">
    <g
       id="g1669"
       transform="matrix(0.1997272,0,0,0.1997272,17.571756,164.78463)"
       style="fill:#ffffff;fill-opacity:1">
      <path
         style="fill:#ffffff;fill-opacity:1;stroke-width:0.26458335"
         d="M 40.464335,130.39754 C 40.452846,85.176941 40.41368,48.117805 40.3773,48.043904 c -0.03638,-0.0739 29.749555,-0.132967 66.19096,-0.131259 36.44141,0.0017 66.26657,0.03241 66.27813,0.06822 0.0116,0.03581 -0.009,36.944723 -0.046,82.019805 l -0.067,81.95468 h -65.99065 c -52.544959,0 -66.017844,0.0674 -66.124106,0.33073 -0.0734,0.1819 -0.142851,-36.66794 -0.154339,-81.88854 z M 167.44345,129.93452 V 53.205352 H 106.58928 45.735112 v 76.729168 76.72917 h 60.854168 60.85417 z m -110.351606,70.6641 c -1.102685,-1.10268 -1.09991,-2.78353 0.0063,-3.84338 1.798418,-1.723 4.511927,-0.46973 4.511927,2.08389 0,0.97378 -0.132406,1.27435 -0.814052,1.84791 -1.167614,0.98249 -2.669156,0.94665 -3.704217,-0.0884 z m -0.508815,-4.51827 c 0,-0.14552 0.12609,-0.26458 0.280199,-0.26458 0.15411,0 0.206613,0.11906 0.116676,0.26458 -0.08994,0.14553 -0.216027,0.26459 -0.280199,0.26459 -0.06417,0 -0.116676,-0.11906 -0.116676,-0.26459 z m 15.610417,-5.45226 c 0,-2.4504 0.05309,-2.78606 0.418515,-2.64584 0.230183,0.0883 14.547449,0.16034 31.816149,0.16003 l 31.39763,-5.8e-4 -0.0837,2.64641 -0.0837,2.64641 H 103.92588 72.193446 Z m -15.164041,-0.58148 c -1.64306,-1.71499 -0.437544,-4.54959 1.934874,-4.54959 0.861949,0 1.265881,0.16684 1.872435,0.7734 1.730778,1.73077 0.537081,4.51827 -1.934874,4.51827 -0.927176,0 -1.304893,-0.1497 -1.872435,-0.74208 z m -0.446376,-9.85687 c 0,-0.15411 0.119063,-0.20661 0.264584,-0.11668 0.14552,0.0899 0.264583,0.21603 0.264583,0.2802 0,0.0642 -0.119063,0.11668 -0.264583,0.11668 -0.145521,0 -0.264584,-0.12609 -0.264584,-0.2802 z m 1.73082,0.0805 c -0.982208,-0.23686 -1.64392,-0.8648 -1.944971,-1.84572 -0.407223,-1.32686 0.228701,-2.6625 1.582846,-3.32448 0.896861,-0.43844 1.047835,-0.44333 1.957261,-0.0633 1.316987,0.55027 1.682673,1.09888 1.692714,2.53944 0.0069,0.98264 -0.126963,1.3332 -0.71919,1.88414 -0.771703,0.71791 -1.71586,1.01562 -2.56866,0.80996 z m 53.518501,-5.2913 -39.603796,-0.067 -0.0837,-2.64385 -0.0837,-2.64385 39.737936,-0.0673 39.73794,-0.0673 0.0819,2.738 c 0.045,1.5059 0.0223,2.75606 -0.0504,2.77813 -0.0728,0.0221 -17.95401,0.01 -39.7361,-0.0269 z m -54.740506,-6.13035 c -1.102685,-1.10268 -1.09991,-2.78353 0.0063,-3.84339 1.798418,-1.72299 4.511927,-0.46972 4.511927,2.0839 0,0.97378 -0.132406,1.27435 -0.814052,1.84791 -1.167614,0.98249 -2.669156,0.94665 -3.704217,-0.0884 z m -0.508815,-4.51827 c 0,-0.14552 0.12609,-0.26458 0.280199,-0.26458 0.15411,0 0.206613,0.11906 0.116676,0.26458 -0.08994,0.14552 -0.216027,0.26459 -0.280199,0.26459 -0.06417,0 -0.116676,-0.11907 -0.116676,-0.26459 z m 0.446376,-6.03375 c -1.64306,-1.71498 -0.437544,-4.54958 1.934874,-4.54958 0.861949,0 1.265881,0.16684 1.872435,0.7734 1.730778,1.73077 0.537081,4.51827 -1.934874,4.51827 -0.927176,0 -1.304893,-0.1497 -1.872435,-0.74209 z m 15.164028,-4.48343 1.3e-5,-2.71198 h 31.732434 31.73242 l 0.0837,2.64431 0.0837,2.64431 -31.81616,0.0677 -31.816158,0.0677 z m -15.610404,-5.37343 c 0,-0.15411 0.119063,-0.20662 0.264584,-0.11668 0.14552,0.0899 0.264583,0.21603 0.264583,0.2802 0,0.0642 -0.119063,0.11668 -0.264583,0.11668 -0.145521,0 -0.264584,-0.12609 -0.264584,-0.2802 z m 1.73082,0.0805 c -0.982208,-0.23686 -1.64392,-0.8648 -1.944971,-1.84572 -0.407223,-1.32686 0.228701,-2.6625 1.582846,-3.32449 0.896861,-0.43843 1.047835,-0.44332 1.957261,-0.0633 1.316987,0.55027 1.682673,1.09888 1.692714,2.53944 0.0069,0.98264 -0.126963,1.3332 -0.71919,1.88414 -0.771703,0.71791 -1.71586,1.01562 -2.56866,0.80996 z m 53.208391,-10.5821 c -35.994165,-0.0616 -39.634554,-0.10638 -39.489062,-0.48553 0.08815,-0.22971 0.160263,-1.44971 0.160258,-2.71111 l -1.4e-5,-2.29347 39.734168,0.0687 c 21.8538,0.0378 39.74294,0.0973 39.75366,0.13229 0.1146,0.37392 -0.19448,5.47075 -0.32881,5.42227 -0.0995,-0.0359 -18.02307,-0.0958 -39.8302,-0.13316 z m -54.430396,-0.83955 c -1.102685,-1.10268 -1.09991,-2.78353 0.0063,-3.84339 1.798418,-1.72299 4.511927,-0.46972 4.511927,2.0839 0,0.97378 -0.132406,1.27435 -0.814052,1.84791 -1.167614,0.98249 -2.669156,0.94665 -3.704217,-0.0884 z m -0.508815,-4.51827 c 0,-0.14552 0.12609,-0.26458 0.280199,-0.26458 0.15411,0 0.206613,0.11906 0.116676,0.26458 -0.08994,0.14552 -0.216027,0.26459 -0.280199,0.26459 -0.06417,0 -0.116676,-0.11907 -0.116676,-0.26459 z m 0.446376,-6.03375 c -1.64306,-1.71498 -0.437544,-4.54958 1.934874,-4.54958 0.861949,0 1.265881,0.16684 1.872435,0.7734 1.730778,1.73077 0.537081,4.51827 -1.934874,4.51827 -0.927176,0 -1.304893,-0.1497 -1.872435,-0.74209 z m -0.446376,-9.85686 c 0,-0.15411 0.119063,-0.20662 0.264584,-0.11668 0.14552,0.0899 0.264583,0.21603 0.264583,0.2802 0,0.0642 -0.119063,0.11668 -0.264583,0.11668 -0.145521,0 -0.264584,-0.12609 -0.264584,-0.2802 z m 1.73082,0.0805 c -0.982208,-0.23686 -1.64392,-0.86481 -1.944971,-1.84572 -0.407223,-1.32686 0.228701,-2.6625 1.582846,-3.32449 0.896861,-0.43843 1.047835,-0.44332 1.957261,-0.0633 1.316987,0.55027 1.682673,1.09888 1.692714,2.53943 0.0069,0.98265 -0.126963,1.33321 -0.71919,1.88415 -0.771703,0.7179 -1.71586,1.01562 -2.56866,0.80996 z m 13.972802,-10.02361 c 0.45135,-5.33946 4.032819,-11.09582 8.565383,-13.766815 l 1.117962,-0.658804 -0.811747,-0.838574 c -1.062741,-1.097862 -2.402977,-3.184937 -3.002118,-4.675031 -0.709486,-1.764527 -0.864267,-6.078993 -0.289068,-8.057608 1.269664,-4.367493 4.828408,-7.966779 9.14428,-9.248455 2.769286,-0.822388 7.20575,-0.41565 9.777625,0.896422 1.935803,0.987573 4.173492,3.099475 5.262072,4.966282 1.37441,2.35698 1.89241,4.206478 1.89241,6.756837 0,3.693641 -1.2127,6.886675 -3.46095,9.11267 l -1.070667,1.060072 1.239907,0.726636 c 1.5736,0.922192 4.44411,3.786193 5.77059,5.757505 1.35633,2.015683 2.59458,5.643103 2.75538,8.071823 l 0.12699,1.91823 h -2.63889 -2.63889 l -0.42683,-2.1665 c -1.13969,-5.78494 -4.934369,-9.579616 -10.719307,-10.719311 -1.988489,-0.391756 -2.342919,-0.392071 -4.313549,-0.0038 -2.937817,0.578781 -5.291331,1.804249 -7.176445,3.736758 -1.878886,1.926123 -2.997668,4.120263 -3.562324,6.986393 l -0.426825,2.1665 h -2.642921 -2.64292 l 0.170852,-2.02119 z m 21.74216,-17.417636 c 3.404597,-1.665714 5.248071,-5.527556 4.260408,-8.925005 -1.389293,-4.778991 -6.44833,-7.214246 -10.771966,-5.185267 -1.870075,0.877583 -3.058395,2.0643 -3.919437,3.914156 -1.947092,4.183107 0.237927,9.002578 4.824093,10.640446 1.757865,0.62779 3.735975,0.47103 5.606902,-0.44433 z m -7.011036,-0.65917 c -0.214066,-0.135379 -0.320331,-0.315029 -0.23614,-0.399217 0.08419,-0.08419 0.303678,0.0284 0.487754,0.250196 0.381688,0.459904 0.308501,0.503248 -0.251614,0.149021 z m 6.871505,0.14605 c 0,-0.05037 0.178594,-0.23981 0.396875,-0.420968 0.228756,-0.189852 0.396875,-0.215567 0.396875,-0.0607 0,0.147769 -0.178594,0.337203 -0.396875,0.420968 -0.218281,0.08376 -0.396875,0.111077 -0.396875,0.0607 z m 25.92917,17.438406 c 0,-1.83228 -0.0896,-2.51464 -0.33073,-2.51759 -0.24167,-0.003 -0.24852,-0.0564 -0.0254,-0.19844 0.16792,-0.10691 7.46049,-0.16278 16.20573,-0.12416 l 15.90043,0.0702 v 2.64175 2.64175 h -15.875 -15.875 z m -62.726606,-0.90569 c -1.102685,-1.10268 -1.09991,-2.78353 0.0063,-3.84339 1.798418,-1.72299 4.511927,-0.46972 4.511927,2.0839 0,0.97378 -0.132406,1.27435 -0.814052,1.84791 -1.167614,0.98249 -2.669156,0.94664 -3.704217,-0.0884 z m -0.508815,-4.51827 c 0,-0.14552 0.12609,-0.26458 0.280199,-0.26458 0.15411,0 0.206613,0.11906 0.116676,0.26458 -0.08994,0.14552 -0.216027,0.26459 -0.280199,0.26459 -0.06417,0 -0.116676,-0.11907 -0.116676,-0.26459 z m 0.446376,-6.033746 c -1.64306,-1.714984 -0.437544,-4.549585 1.934874,-4.549585 0.861949,0 1.265881,0.166841 1.872435,0.773399 1.730778,1.730774 0.537081,4.518268 -1.934874,4.518268 -0.927176,0 -1.304893,-0.149696 -1.872435,-0.742082 z m 62.809935,-4.218855 -0.0209,-2.976563 h 15.85743 15.85742 l 0.0837,2.64641 0.0837,2.64641 -15.78681,-5.29e-4 c -12.38231,-5.29e-4 -15.81558,0.07075 -15.92025,0.330153 -0.0734,0.181901 -0.14286,-1.008724 -0.15434,-2.645834 z M 56.583029,84.939737 c 0,-0.154109 0.119063,-0.206613 0.264584,-0.116676 0.14552,0.08994 0.264583,0.216027 0.264583,0.280199 0,0.06417 -0.119063,0.116676 -0.264583,0.116676 -0.145521,0 -0.264584,-0.12609 -0.264584,-0.280199 z m 1.73082,0.08054 c -0.982208,-0.236863 -1.64392,-0.864809 -1.944971,-1.845725 -0.407223,-1.326856 0.228701,-2.662502 1.582846,-3.324484 0.896861,-0.438436 1.047835,-0.443323 1.957261,-0.06334 1.316987,0.55027 1.682673,1.098881 1.692714,2.539439 0.0069,0.982647 -0.126963,1.333209 -0.71919,1.884146 -0.771703,0.717904 -1.71586,1.015619 -2.56866,0.809964 z M 119.81845,74.504311 c 0,-1.832285 -0.0896,-2.51464 -0.33073,-2.517593 -0.24167,-0.003 -0.24852,-0.0564 -0.0254,-0.198437 0.16792,-0.106913 7.46049,-0.162785 16.20573,-0.124159 l 15.90043,0.07023 v 2.641751 2.641751 h -15.875 -15.875 z m -62.726606,-0.90569 c -1.102685,-1.102683 -1.09991,-2.783531 0.0063,-3.843388 1.798418,-1.722993 4.511927,-0.46972 4.511927,2.083898 0,0.973781 -0.132406,1.274345 -0.814052,1.847911 -1.167614,0.982483 -2.669156,0.946642 -3.704217,-0.08842 z m -0.508815,-4.518269 c 0,-0.14552 0.12609,-0.264583 0.280199,-0.264583 0.15411,0 0.206613,0.119063 0.116676,0.264583 -0.08994,0.145521 -0.216027,0.264584 -0.280199,0.264584 -0.06417,0 -0.116676,-0.119063 -0.116676,-0.264584 z m 0.446376,-6.033749 c -1.64306,-1.714984 -0.437544,-4.549584 1.934874,-4.549584 0.861949,0 1.265881,0.166841 1.872435,0.773398 1.730778,1.730775 0.537081,4.518269 -1.934874,4.518269 -0.927176,0 -1.304893,-0.149696 -1.872435,-0.742083 z"
         id="path1685"
         inkscape:connector-curvature="0" />
      <path
         style="fill:#ffffff;fill-opacity:1;stroke-width:0.26458335"
         d="m 40.443443,130.00067 3e-6,-82.086985 h 66.145834 66.14583 v 82.019795 82.0198 l -66.14583,0.0672 -66.14584,0.0672 z m 127.000007,-0.0662 V 53.205352 H 106.58928 45.735112 v 76.729168 76.72917 h 60.854168 60.85417 z m -110.351606,70.6641 c -1.704321,-1.70432 -0.538181,-4.51827 1.872435,-4.51827 0.861949,0 1.265881,0.16685 1.872435,0.7734 1.704322,1.70432 0.538181,4.51827 -1.872435,4.51827 -0.861949,0 -1.26588,-0.16684 -1.872435,-0.7734 z m 15.101602,-9.80993 v -2.64584 l 31.816144,-5.2e-4 31.81615,-5.3e-4 -0.0837,2.64641 -0.0837,2.64631 H 103.92588 72.193446 Z m -15.101602,-0.7734 c -1.704321,-1.70432 -0.538181,-4.51827 1.872435,-4.51827 0.861949,0 1.265881,0.16684 1.872435,0.7734 1.704322,1.70432 0.538181,4.51827 -1.872435,4.51827 -0.861949,0 -1.26588,-0.16684 -1.872435,-0.7734 z m 0,-10.58333 c -1.704321,-1.70432 -0.538181,-4.51827 1.872435,-4.51827 0.861949,0 1.265881,0.16684 1.872435,0.7734 1.704322,1.70431 0.538181,4.51826 -1.872435,4.51826 -0.861949,0 -1.26588,-0.16684 -1.872435,-0.77339 z m 15.101602,-7.16411 v -2.64583 h 39.687504 39.6875 v 2.64583 2.64584 h -39.6875 -39.687504 z m -15.101602,-3.41923 c -1.704321,-1.70432 -0.538181,-4.51827 1.872435,-4.51827 0.861949,0 1.265881,0.16684 1.872435,0.7734 1.704322,1.70432 0.538181,4.51827 -1.872435,4.51827 -0.861949,0 -1.26588,-0.16684 -1.872435,-0.7734 z m 0,-10.58333 c -1.704321,-1.70432 -0.538181,-4.51827 1.872435,-4.51827 0.861949,0 1.265881,0.16684 1.872435,0.7734 1.704322,1.70432 0.538181,4.51827 -1.872435,4.51827 -0.861949,0 -1.26588,-0.16684 -1.872435,-0.7734 z m 15.101602,-4.51827 v -2.64583 h 31.750004 31.75 v 2.64583 2.64583 h -31.75 -31.750004 z m -15.101602,-6.06506 c -1.704321,-1.70432 -0.538181,-4.51827 1.872435,-4.51827 0.861949,0 1.265881,0.16684 1.872435,0.7734 1.704322,1.70431 0.538181,4.51826 -1.872435,4.51826 -0.861949,0 -1.26588,-0.16684 -1.872435,-0.77339 z m 0,-10.58334 c -1.704321,-1.70432 -0.538181,-4.51827 1.872435,-4.51827 0.861949,0 1.265881,0.16684 1.872435,0.7734 1.704322,1.70432 0.538181,4.51827 -1.872435,4.51827 -0.861949,0 -1.26588,-0.16684 -1.872435,-0.7734 z m 15.101602,-1.87243 v -2.64584 h 39.687504 39.6875 v 2.64584 2.64583 h -39.6875 -39.687504 z m -15.101602,-8.7109 c -1.704321,-1.70432 -0.538181,-4.51827 1.872435,-4.51827 0.861949,0 1.265881,0.16684 1.872435,0.7734 1.704322,1.70432 0.538181,4.51827 -1.872435,4.51827 -0.861949,0 -1.26588,-0.16684 -1.872435,-0.7734 z m 0,-10.58334 c -1.704321,-1.70431 -0.538181,-4.51826 1.872435,-4.51826 0.861949,0 1.265881,0.16684 1.872435,0.77339 1.704322,1.70432 0.538181,4.51827 -1.872435,4.51827 -0.861949,0 -1.26588,-0.16684 -1.872435,-0.7734 z m 15.103457,-8.28858 c 0.003,-1.80062 0.987944,-5.41459 2.001327,-7.34306 1.633818,-3.109161 4.452271,-6.11647 7.090918,-7.566062 l 0.759722,-0.417369 -1.06004,-1.101077 C 78.68829,88.827821 77.482935,85.7729 77.488254,82.347744 c 0.0057,-3.658079 1.335521,-6.872822 3.89237,-9.409361 2.570242,-2.549827 5.72942,-3.849286 9.37193,-3.85494 7.254865,-0.01127 13.175556,5.871961 13.187756,13.104291 0.006,3.42233 -1.08884,6.380801 -3.23009,8.730213 l -1.248844,1.370254 1.835524,1.265565 c 4.47987,3.088807 7.41529,8.058134 7.85394,13.295804 l 0.16065,1.91823 h -2.64525 -2.64524 l -0.31676,-1.91823 c -0.95205,-5.7655 -5.318155,-10.121513 -11.102446,-11.076767 -3.966697,-0.655087 -8.758389,0.994349 -11.396724,3.923075 -1.734918,1.925872 -3.070884,4.671572 -3.480753,7.153692 l -0.316753,1.91823 h -2.607059 -2.607059 l 0.0019,-1.12448 z M 92.515346,89.936097 c 5.143693,-1.288042 7.679454,-7.264948 4.93004,-11.62031 -0.96987,-1.536372 -1.859299,-2.316512 -3.556106,-3.119149 -3.820893,-1.807387 -8.318757,-0.132067 -10.310159,3.840229 -1.350651,2.694178 -0.625065,6.661912 1.608738,8.797097 2.126906,2.033003 4.679352,2.765258 7.327487,2.102133 z m 27.303104,16.185923 v -2.64583 h 15.875 15.875 v 2.64583 2.64583 h -15.875 -15.875 z m -62.726606,-0.7734 c -1.704321,-1.70432 -0.538181,-4.51827 1.872435,-4.51827 0.861949,0 1.265881,0.16684 1.872435,0.7734 1.704322,1.70432 0.538181,4.51827 -1.872435,4.51827 -0.861949,0 -1.26588,-0.16684 -1.872435,-0.7734 z m 0,-10.583332 c -0.606557,-0.606555 -0.773398,-1.010486 -0.773398,-1.872435 0,-2.410616 2.81395,-3.576757 4.518268,-1.872435 1.704322,1.704318 0.538181,4.518268 -1.872435,4.518268 -0.861949,0 -1.26588,-0.166841 -1.872435,-0.773398 z m 62.726606,-4.518269 v -2.645833 h 15.875 15.875 v 2.645833 2.645834 h -15.875 -15.875 z M 57.091844,84.181954 c -0.606557,-0.606554 -0.773398,-1.010486 -0.773398,-1.872435 0,-2.410616 2.81395,-3.576756 4.518268,-1.872435 0.606558,0.606555 0.773399,1.010486 0.773399,1.872435 0,0.861949 -0.166841,1.265881 -0.773399,1.872435 -0.606554,0.606558 -1.010486,0.773399 -1.872435,0.773399 -0.861949,0 -1.26588,-0.166841 -1.872435,-0.773399 z m 62.726606,-9.809935 v -2.645833 h 15.875 15.875 v 2.645833 2.645834 h -15.875 -15.875 z M 57.091844,73.598621 c -0.606557,-0.606555 -0.773398,-1.010486 -0.773398,-1.872435 0,-2.410616 2.81395,-3.576757 4.518268,-1.872435 0.606558,0.606554 0.773399,1.010486 0.773399,1.872435 0,0.861949 -0.166841,1.26588 -0.773399,1.872435 -0.606554,0.606557 -1.010486,0.773398 -1.872435,0.773398 -0.861949,0 -1.26588,-0.166841 -1.872435,-0.773398 z m 0,-10.583334 c -0.606557,-0.606554 -0.773398,-1.010486 -0.773398,-1.872435 0,-0.861949 0.166841,-1.26588 0.773398,-1.872435 1.704319,-1.704321 4.518269,-0.538181 4.518269,1.872435 0,0.861949 -0.166841,1.265881 -0.773399,1.872435 -0.606554,0.606558 -1.010486,0.773399 -1.872435,0.773399 -0.861949,0 -1.26588,-0.166841 -1.872435,-0.773399 z"
         id="path1683"
         inkscape:connector-curvature="0" />
      <path
         style="fill:#ffffff;fill-opacity:1;stroke-width:0.26458335"
         d="M 40.443446,129.93452 V 47.913685 h 66.145834 66.14583 v 82.020835 82.02083 H 106.58928 40.443446 Z m 127.000004,0 V 53.205352 H 106.58928 45.735112 v 76.729168 76.72917 h 60.854168 60.85417 z m -110.351606,70.6641 c -1.704321,-1.70432 -0.538181,-4.51827 1.872435,-4.51827 0.861949,0 1.265881,0.16685 1.872435,0.7734 1.704322,1.70432 0.538181,4.51827 -1.872435,4.51827 -0.861949,0 -1.26588,-0.16684 -1.872435,-0.7734 z m 15.101602,-9.80993 v -2.64584 h 31.750004 31.75 v 2.64584 2.64583 h -31.75 -31.750004 z m -15.101602,-0.7734 c -1.704321,-1.70432 -0.538181,-4.51827 1.872435,-4.51827 0.861949,0 1.265881,0.16684 1.872435,0.7734 1.704322,1.70432 0.538181,4.51827 -1.872435,4.51827 -0.861949,0 -1.26588,-0.16684 -1.872435,-0.7734 z m 0,-10.58333 c -1.704321,-1.70432 -0.538181,-4.51827 1.872435,-4.51827 0.861949,0 1.265881,0.16684 1.872435,0.7734 1.704322,1.70431 0.538181,4.51826 -1.872435,4.51826 -0.861949,0 -1.26588,-0.16684 -1.872435,-0.77339 z m 15.101602,-7.16411 v -2.64583 h 39.687504 39.6875 v 2.64583 2.64584 h -39.6875 -39.687504 z m -15.101602,-3.41923 c -1.704321,-1.70432 -0.538181,-4.51827 1.872435,-4.51827 0.861949,0 1.265881,0.16684 1.872435,0.7734 1.704322,1.70432 0.538181,4.51827 -1.872435,4.51827 -0.861949,0 -1.26588,-0.16684 -1.872435,-0.7734 z m 0,-10.58333 c -1.704321,-1.70432 -0.538181,-4.51827 1.872435,-4.51827 0.861949,0 1.265881,0.16684 1.872435,0.7734 1.704322,1.70432 0.538181,4.51827 -1.872435,4.51827 -0.861949,0 -1.26588,-0.16684 -1.872435,-0.7734 z m 15.101602,-4.51827 v -2.64583 h 31.750004 31.75 v 2.64583 2.64583 h -31.75 -31.750004 z m -15.101602,-6.06506 c -1.704321,-1.70432 -0.538181,-4.51827 1.872435,-4.51827 0.861949,0 1.265881,0.16684 1.872435,0.7734 1.704322,1.70431 0.538181,4.51826 -1.872435,4.51826 -0.861949,0 -1.26588,-0.16684 -1.872435,-0.77339 z m 0,-10.58334 c -1.704321,-1.70432 -0.538181,-4.51827 1.872435,-4.51827 0.861949,0 1.265881,0.16684 1.872435,0.7734 1.704322,1.70432 0.538181,4.51827 -1.872435,4.51827 -0.861949,0 -1.26588,-0.16684 -1.872435,-0.7734 z m 15.101602,-1.87243 v -2.64584 h 39.687504 39.6875 v 2.64584 2.64583 h -39.6875 -39.687504 z m -15.101602,-8.7109 c -1.704321,-1.70432 -0.538181,-4.51827 1.872435,-4.51827 0.861949,0 1.265881,0.16684 1.872435,0.7734 1.704322,1.70432 0.538181,4.51827 -1.872435,4.51827 -0.861949,0 -1.26588,-0.16684 -1.872435,-0.7734 z m 0,-10.58334 c -1.704321,-1.70431 -0.538181,-4.51826 1.872435,-4.51826 0.861949,0 1.265881,0.16684 1.872435,0.77339 1.704322,1.70432 0.538181,4.51827 -1.872435,4.51827 -0.861949,0 -1.26588,-0.16684 -1.872435,-0.7734 z m 15.193558,-8.95003 c 0.513789,-5.4637 3.509571,-10.46835 8.181637,-13.667959 l 1.509993,-1.0341 -1.136023,-1.214858 c -2.028833,-2.169623 -3.346929,-5.596719 -3.352755,-8.717294 -0.0067,-3.607678 1.440161,-6.991149 4.069305,-9.515785 3.412122,-3.276486 7.936582,-4.489878 12.425823,-3.332421 9.664118,2.491695 13.209218,14.386491 6.467528,21.700358 l -1.031016,1.118523 1.530286,1.014839 c 4.51484,2.994088 7.75914,8.342227 8.19937,13.516397 l 0.16321,1.91823 h -2.64836 -2.64835 l -0.33075,-2.05027 C 102.53961,99.615466 95.817098,94.654859 88.80833,95.739717 83.129525,96.618713 78.656487,101.05649 77.743256,106.71758 l -0.330745,2.05027 H 74.764985 72.117458 Z M 94.118817,89.406195 c 1.54628,-0.748544 2.963299,-2.187665 3.751265,-3.809781 0.887531,-1.827083 0.904404,-4.753575 0.03755,-6.513454 -0.783145,-1.589942 -2.3857,-3.189817 -3.966795,-3.960162 -1.793242,-0.87371 -4.70939,-0.850754 -6.525974,0.05137 -1.683097,0.835837 -3.053779,2.200746 -3.864732,3.848454 -0.871096,1.769907 -0.891686,4.72186 -0.04507,6.461895 1.986497,4.082828 6.690479,5.820903 10.613758,3.921676 z m 25.699633,16.715825 v -2.64583 h 15.875 15.875 v 2.64583 2.64583 h -15.875 -15.875 z m -62.726606,-0.7734 c -1.704321,-1.70432 -0.538181,-4.51827 1.872435,-4.51827 0.861949,0 1.265881,0.16684 1.872435,0.7734 1.704322,1.70432 0.538181,4.51827 -1.872435,4.51827 -0.861949,0 -1.26588,-0.16684 -1.872435,-0.7734 z m 0,-10.583332 c -0.606557,-0.606555 -0.773398,-1.010486 -0.773398,-1.872435 0,-2.410616 2.81395,-3.576757 4.518268,-1.872435 1.704322,1.704318 0.538181,4.518268 -1.872435,4.518268 -0.861949,0 -1.26588,-0.166841 -1.872435,-0.773398 z m 62.726606,-4.518269 v -2.645833 h 15.875 15.875 v 2.645833 2.645834 h -15.875 -15.875 z M 57.091844,84.181954 c -0.606557,-0.606554 -0.773398,-1.010486 -0.773398,-1.872435 0,-2.410616 2.81395,-3.576756 4.518268,-1.872435 0.606558,0.606555 0.773399,1.010486 0.773399,1.872435 0,0.861949 -0.166841,1.265881 -0.773399,1.872435 -0.606554,0.606558 -1.010486,0.773399 -1.872435,0.773399 -0.861949,0 -1.26588,-0.166841 -1.872435,-0.773399 z m 62.726606,-9.809935 v -2.645833 h 15.875 15.875 v 2.645833 2.645834 h -15.875 -15.875 z M 57.091844,73.598621 c -0.606557,-0.606555 -0.773398,-1.010486 -0.773398,-1.872435 0,-2.410616 2.81395,-3.576757 4.518268,-1.872435 0.606558,0.606554 0.773399,1.010486 0.773399,1.872435 0,0.861949 -0.166841,1.26588 -0.773399,1.872435 -0.606554,0.606557 -1.010486,0.773398 -1.872435,0.773398 -0.861949,0 -1.26588,-0.166841 -1.872435,-0.773398 z m 0,-10.583334 c -0.606557,-0.606554 -0.773398,-1.010486 -0.773398,-1.872435 0,-0.861949 0.166841,-1.26588 0.773398,-1.872435 1.704319,-1.704321 4.518269,-0.538181 4.518269,1.872435 0,0.861949 -0.166841,1.265881 -0.773399,1.872435 -0.606554,0.606558 -1.010486,0.773399 -1.872435,0.773399 -0.861949,0 -1.26588,-0.166841 -1.872435,-0.773399 z"
         id="path1681"
         inkscape:connector-curvature="0" />
      <path
         style="fill:#ffffff;fill-opacity:1;stroke-width:0.26458335"
         d="M 40.443446,129.93452 V 47.913685 h 66.145834 66.14583 v 82.020835 82.02083 H 106.58928 40.443446 Z m 127.000004,0 V 53.205352 H 106.58928 45.735112 v 76.729168 76.72917 h 60.854168 60.85417 z m -110.310902,70.6234 c -1.709325,-1.70933 -0.602031,-4.47757 1.791025,-4.47757 1.493581,0 2.68654,1.19296 2.68654,2.68654 0,2.39306 -2.768238,3.50035 -4.477565,1.79103 z m 15.060898,-9.76923 v -2.64584 h 31.750004 31.75 v 2.64584 2.64583 h -31.75 -31.750004 z m -15.101602,-0.7734 c -1.100455,-1.10046 -1.084204,-2.57926 0.0407,-3.70417 1.709327,-1.70932 4.477565,-0.60203 4.477565,1.79103 0,0.82903 -0.17639,1.23472 -0.814102,1.87244 -1.124911,1.1249 -2.603712,1.14115 -3.704167,0.0407 z m 0,-10.58333 c -1.100455,-1.10046 -1.084204,-2.57926 0.0407,-3.70417 1.709327,-1.70933 4.477565,-0.60203 4.477565,1.79102 0,0.82903 -0.17639,1.23473 -0.814102,1.87244 -1.124911,1.12491 -2.603712,1.14116 -3.704167,0.0407 z m 15.101602,-7.16411 v -2.64583 h 39.687504 39.6875 v 2.64583 2.64584 h -39.6875 -39.687504 z m -15.060898,-3.45993 c -1.709325,-1.70933 -0.602031,-4.47757 1.791025,-4.47757 1.493581,0 2.68654,1.19296 2.68654,2.68654 0,2.39306 -2.768238,3.50035 -4.477565,1.79103 z m -0.0407,-10.54263 c -1.100455,-1.10046 -1.084204,-2.57926 0.0407,-3.70417 0.637714,-0.63771 1.043408,-0.8141 1.872437,-0.8141 2.393056,0 3.500351,2.76824 1.791026,4.47757 -1.124911,1.1249 -2.603712,1.14115 -3.704167,0.0407 z m 15.101602,-4.51827 v -2.64583 h 31.75 31.75 v 2.64583 2.64583 h -31.75 -31.75 z m -15.101602,-6.06506 c -1.100455,-1.10046 -1.084204,-2.57926 0.0407,-3.70417 0.637714,-0.63771 1.043408,-0.8141 1.872437,-0.8141 2.393056,0 3.500351,2.76823 1.791026,4.47756 -1.124911,1.12491 -2.603712,1.14116 -3.704167,0.0407 z m 0.0407,-10.62404 c -1.709325,-1.70933 -0.602031,-4.47757 1.791025,-4.47757 1.493581,0 2.68654,1.19296 2.68654,2.68654 0,2.39306 -2.768238,3.50035 -4.477565,1.79103 z m 15.060898,-1.83173 v -2.64584 h 39.687504 39.6875 v 2.64584 2.64583 h -39.6875 -39.687504 z m -15.101602,-8.7109 c -1.100455,-1.10046 -1.084204,-2.57926 0.0407,-3.70417 0.637714,-0.63771 1.043408,-0.8141 1.872437,-0.8141 2.393056,0 3.500351,2.76824 1.791026,4.47756 -1.124911,1.12491 -2.603712,1.14116 -3.704167,0.0407 z m 0,-10.58334 c -1.100455,-1.10045 -1.084204,-2.57925 0.0407,-3.70416 0.637714,-0.63771 1.043408,-0.8141 1.872437,-0.8141 2.393056,0 3.500351,2.76823 1.791026,4.47756 -1.124911,1.12491 -2.603712,1.14116 -3.704167,0.0407 z m 15.220469,-9.08233 c 0.265507,-2.72006 1.364033,-5.81855 2.851192,-8.042033 1.871295,-2.797818 3.179414,-4.023162 6.784899,-6.355567 0.05371,-0.03475 -0.448337,-0.687343 -1.115674,-1.450211 -6.561918,-7.501257 -2.949498,-18.956753 6.796159,-21.55158 7.861308,-2.093108 16.294341,4.445842 16.311421,12.64783 0.007,3.221961 -1.27896,6.634321 -3.38009,8.971277 -0.650243,0.723234 -1.137296,1.34442 -1.082331,1.380416 0.05496,0.036 0.754781,0.493549 1.555141,1.016778 4.40732,2.881249 7.61825,8.20185 8.10402,13.42862 l 0.17405,1.8727 h -2.63639 -2.63639 l -0.31333,-2.01545 C 102.05713,96.024347 89.008373,91.839504 81.358356,99.579247 c -2.139934,2.165033 -3.201021,4.254463 -3.660074,7.207193 l -0.308043,1.98141 H 74.757656 72.125073 Z M 93.94494,89.514425 c 1.545662,-0.68372 3.277402,-2.411132 4.000442,-3.990438 0.415092,-0.906671 0.56316,-1.751835 0.56316,-3.214468 0,-2.407764 -0.614076,-3.932314 -2.238012,-5.55625 -1.623936,-1.623936 -3.148486,-2.238012 -5.55625,-2.238012 -8.900017,0 -10.919966,12.26344 -2.515584,15.272533 1.655106,0.592593 4.045704,0.478867 5.746244,-0.273365 z m 25.87351,16.607595 v -2.64583 h 15.875 15.875 v 2.64583 2.64583 h -15.875 -15.875 z m -62.685902,-0.8141 c -1.709325,-1.70933 -0.602031,-4.47757 1.791025,-4.47757 1.493581,0 2.68654,1.19296 2.68654,2.68654 0,2.39306 -2.768238,3.50035 -4.477565,1.79103 z m -0.0407,-10.542632 c -1.100455,-1.100455 -1.084204,-2.579256 0.0407,-3.704167 0.637714,-0.637712 1.043408,-0.814102 1.872437,-0.814102 2.393056,0 3.500351,2.768238 1.791026,4.477565 -1.124911,1.124908 -2.603712,1.141159 -3.704167,0.0407 z m 62.726602,-4.518269 v -2.645833 h 15.875 15.875 v 2.645833 2.645834 h -15.875 -15.875 z M 57.091844,84.181954 c -1.100455,-1.100455 -1.084204,-2.579256 0.0407,-3.704166 1.709327,-1.709325 4.477565,-0.602031 4.477565,1.791025 0,0.82903 -0.17639,1.234723 -0.814102,1.872438 -1.124911,1.124908 -2.603712,1.141158 -3.704167,0.0407 z m 62.726606,-9.809935 v -2.645833 h 15.875 15.875 v 2.645833 2.645834 h -15.875 -15.875 z M 57.132548,73.557917 c -1.709325,-1.709327 -0.602031,-4.477565 1.791025,-4.477565 1.493581,0 2.68654,1.192959 2.68654,2.68654 0,2.393056 -2.768238,3.50035 -4.477565,1.791025 z m -0.0407,-10.54263 c -1.100455,-1.100455 -1.084204,-2.579256 0.0407,-3.704166 1.709327,-1.709325 4.477565,-0.602031 4.477565,1.791025 0,0.82903 -0.17639,1.234723 -0.814102,1.872438 -1.124911,1.124908 -2.603712,1.141158 -3.704167,0.0407 z"
         id="path1679"
         inkscape:connector-curvature="0" />
      <path
         style="fill:#ffffff;fill-opacity:1;stroke-width:0.26458335"
         d="M 40.443446,129.93452 V 47.913685 h 66.145834 66.14583 v 82.020835 82.02083 H 106.58928 40.443446 Z m 127.000004,0 V 53.205352 H 106.58928 45.735112 v 76.729168 76.72917 h 60.854168 60.85417 z M 57.218029,200.47244 c -1.208341,-1.20834 -1.237432,-2.42603 -0.08548,-3.57798 1.190662,-1.19066 2.543995,-1.14582 3.656407,0.12114 1.286771,1.46555 0.994629,3.20303 -0.682803,4.06087 -1.042969,0.53338 -1.937874,0.34622 -2.888123,-0.60403 z m 14.975417,-9.68375 v -2.64584 h 31.750004 31.75 v 2.64584 2.64583 h -31.75 -31.750004 z m -15.060898,-0.8141 c -1.19066,-1.19067 -1.145821,-2.544 0.121147,-3.65641 1.023255,-0.89843 1.872954,-1.02443 2.995129,-0.44413 1.514893,0.78339 1.760098,2.58992 0.540131,3.97939 -1.112412,1.26697 -2.465745,1.31181 -3.656407,0.12115 z m 0.341344,-10.23814 c -0.734658,-0.5951 -1.155446,-1.43936 -1.155446,-2.31829 0,-0.94905 1.555425,-2.50447 2.504477,-2.50447 1.535509,0 2.772063,1.18265 2.781305,2.66007 0.01241,1.98383 -2.637938,3.37158 -4.130336,2.16269 z m 14.719554,-7.4686 v -2.64583 h 39.687504 39.6875 v 2.64583 2.64584 h -39.6875 -39.687504 z m -14.975417,-3.54541 c -1.208341,-1.20834 -1.237432,-2.42603 -0.08548,-3.57798 1.190662,-1.19066 2.543995,-1.14582 3.656407,0.12114 1.286771,1.46555 0.994629,3.20303 -0.682803,4.06087 -1.042969,0.53338 -1.937874,0.34622 -2.888123,-0.60403 z m -0.08548,-10.49785 c -1.19066,-1.19067 -1.145821,-2.544 0.121147,-3.65641 1.023255,-0.89843 1.872954,-1.02443 2.995129,-0.44413 1.514893,0.78339 1.760098,2.58992 0.540131,3.97939 -1.112412,1.26697 -2.465745,1.3118 -3.656407,0.12115 z m 15.060898,-4.47757 v -2.64583 h 31.750003 31.75 v 2.64583 2.64583 h -31.75 -31.750003 z m -14.719554,-5.76057 c -0.734658,-0.5951 -1.155446,-1.43936 -1.155446,-2.31829 0,-0.94905 1.555425,-2.50447 2.504477,-2.50447 1.535509,0 2.772063,1.18265 2.781305,2.66007 0.01241,1.98383 -2.637938,3.37158 -4.130336,2.16269 z M 57.21803,136.97244 c -1.208341,-1.20834 -1.237432,-2.42603 -0.08548,-3.57798 1.190662,-1.19066 2.543995,-1.14583 3.656407,0.12114 1.286771,1.46555 0.994629,3.20302 -0.682803,4.06087 -1.042969,0.53338 -1.937874,0.34622 -2.888123,-0.60403 z m 14.975417,-1.74625 v -2.64584 h 39.687503 39.6875 v 2.64584 2.64583 h -39.6875 -39.687503 z m -15.060898,-8.75161 c -1.19066,-1.19066 -1.145821,-2.54399 0.121147,-3.6564 1.023255,-0.89843 1.872954,-1.02443 2.995129,-0.44413 1.514893,0.78338 1.760098,2.58992 0.540131,3.97939 -1.112412,1.26697 -2.465745,1.3118 -3.656407,0.12114 z m 0.341344,-10.23813 c -0.734658,-0.5951 -1.155446,-1.43936 -1.155446,-2.31829 0,-0.94905 1.555425,-2.50447 2.504477,-2.50447 1.535509,0 2.772063,1.18265 2.781305,2.66007 0.01241,1.98383 -2.637938,3.37158 -4.130336,2.16269 z m 14.724147,-8.32849 c 0.0068,-1.27729 0.706007,-4.3639 1.363491,-6.01927 1.252236,-3.152816 4.245896,-6.825696 6.940407,-8.5151 0.741842,-0.465116 1.392674,-0.876885 1.446297,-0.915038 0.05362,-0.03815 -0.437882,-0.700185 -1.092229,-1.471181 -5.058121,-5.959808 -4.24208,-14.339493 1.863064,-19.131209 4.546544,-3.568427 11.443877,-3.568427 15.990422,0 6.105138,4.791716 6.921188,13.171401 1.863058,19.131209 -0.654341,0.770996 -1.145844,1.436267 -1.092224,1.478381 0.05362,0.04211 0.762804,0.511392 1.575964,1.042844 2.80679,1.834431 5.553,5.213422 6.81074,8.380094 0.65748,1.65537 1.35666,4.74198 1.36349,6.01927 l 0.005,0.85989 h -2.64583 -2.64583 l -0.003,-0.85989 c -0.01,-2.74589 -1.76509,-6.44348 -4.091216,-8.619461 -5.316098,-4.972947 -12.927211,-4.997564 -18.206678,-0.05888 -2.390957,2.236621 -4.14401,5.898871 -4.154159,8.678341 l -0.0031,0.85989 H 74.83928 72.193446 l 0.0046,-0.85989 z M 94.257815,89.346431 c 1.65222,-0.808355 2.900151,-2.106155 3.700595,-3.848468 0.803831,-1.74969 0.778904,-5.009058 -0.05027,-6.573803 -1.611633,-3.041322 -3.878784,-4.405429 -7.326149,-4.408025 -1.781805,-0.0013 -2.329722,0.110016 -3.463401,0.703903 -3.379383,1.770314 -5.03799,5.617612 -3.984337,9.242049 0.741514,2.550713 2.544665,4.459309 5.120114,5.419516 1.526513,0.569132 4.240908,0.32716 6.003451,-0.535172 z m 25.560635,16.775589 v -2.64583 h 15.875 15.875 v 2.64583 2.64583 h -15.875 -15.875 z m -62.600421,-0.89958 c -1.208341,-1.20835 -1.237432,-2.42603 -0.08548,-3.57799 1.190662,-1.19065 2.543995,-1.14582 3.656407,0.12115 1.286771,1.46555 0.994629,3.20302 -0.682803,4.06087 -1.042969,0.53338 -1.937874,0.34621 -2.888123,-0.60403 z m -0.08548,-10.497856 c -1.19066,-1.190662 -1.145821,-2.543995 0.121147,-3.656406 1.023255,-0.89843 1.872954,-1.024425 2.995129,-0.444127 1.514893,0.783383 1.760098,2.589921 0.540131,3.979386 -1.112412,1.266968 -2.465745,1.311807 -3.656407,0.121147 z m 62.685901,-4.477565 v -2.645833 h 15.875 15.875 v 2.645833 2.645834 h -15.875 -15.875 z M 57.473892,84.486447 c -0.734658,-0.595095 -1.155446,-1.439362 -1.155446,-2.318284 0,-0.949053 1.555425,-2.504477 2.504477,-2.504477 1.535509,0 2.772063,1.182656 2.781305,2.660076 0.01241,1.983824 -2.637938,3.371575 -4.130336,2.162685 z M 119.81845,74.372019 v -2.645833 h 15.875 15.875 v 2.645833 2.645834 h -15.875 -15.875 z M 57.218029,73.472436 c -1.208341,-1.208342 -1.237432,-2.426028 -0.08548,-3.577982 1.190662,-1.190659 2.543995,-1.14582 3.656407,0.121148 1.286771,1.46555 0.994629,3.203022 -0.682803,4.060867 -1.042969,0.533379 -1.937874,0.346215 -2.888123,-0.604033 z m -0.08548,-10.497852 c -1.19066,-1.190662 -1.145821,-2.543995 0.121147,-3.656407 1.023255,-0.89843 1.872954,-1.024424 2.995129,-0.444127 1.514893,0.783384 1.760098,2.589922 0.540131,3.979386 -1.112412,1.266968 -2.465745,1.311807 -3.656407,0.121148 z"
         id="path1677"
         inkscape:connector-curvature="0" />
      <path
         style="fill:#ffffff;fill-opacity:1;stroke-width:0.26458335"
         d="M 40.443446,129.93452 V 47.913685 h 66.145834 66.14583 v 82.020835 82.02083 H 106.58928 40.443446 Z m 127.000004,0 V 53.205352 H 106.58928 45.735112 v 76.729168 76.72917 h 60.854168 60.85417 z M 57.218029,200.47244 c -1.220634,-1.22064 -1.220634,-2.27187 0,-3.4925 0.648229,-0.64823 1.136153,-0.89959 1.74625,-0.89959 1.176462,0 2.645834,1.46938 2.645834,2.64584 0,1.17646 -1.469372,2.64583 -2.645834,2.64583 -0.610097,0 -1.098021,-0.25135 -1.74625,-0.89958 z m 14.975417,-9.68375 v -2.64584 h 31.750004 31.75 v 2.64584 2.64583 h -31.75 -31.750004 z M 57.218029,189.8891 c -1.220634,-1.22063 -1.220634,-2.27186 0,-3.4925 0.648229,-0.64822 1.136153,-0.89958 1.74625,-0.89958 1.176462,0 2.645834,1.46937 2.645834,2.64583 0,1.17647 -1.469372,2.64584 -2.645834,2.64584 -0.610097,0 -1.098021,-0.25136 -1.74625,-0.89959 z m 0,-10.58333 c -1.157266,-1.15727 -1.198057,-2.1976 -0.13291,-3.38971 0.634457,-0.71008 0.958529,-0.85806 1.87916,-0.85806 0.920631,0 1.244704,0.14798 1.879161,0.85806 1.065147,1.19211 1.024356,2.23244 -0.132911,3.38971 -0.648229,0.64823 -1.136152,0.89958 -1.74625,0.89958 -0.610097,0 -1.098021,-0.25135 -1.74625,-0.89958 z m 14.975417,-7.03792 v -2.64583 h 39.687504 39.6875 v 2.64583 2.64584 h -39.6875 -39.687504 z m -14.975417,-3.54541 c -1.220634,-1.22064 -1.220634,-2.27187 0,-3.4925 0.648229,-0.64823 1.136153,-0.89959 1.74625,-0.89959 1.176462,0 2.645834,1.46938 2.645834,2.64584 0,1.17646 -1.469372,2.64583 -2.645834,2.64583 -0.610097,0 -1.098021,-0.25135 -1.74625,-0.89958 z m 0,-10.58334 c -1.220634,-1.22063 -1.220634,-2.27186 0,-3.4925 0.648229,-0.64823 1.136153,-0.89958 1.74625,-0.89958 1.176462,0 2.645834,1.46937 2.645834,2.64583 0,1.17647 -1.469372,2.64584 -2.645834,2.64584 -0.610097,0 -1.098021,-0.25136 -1.74625,-0.89959 z m 14.975417,-4.39208 v -2.64583 h 31.750004 31.75 v 2.64583 2.64583 h -31.75 -31.750004 z m -14.975417,-6.19125 c -1.157266,-1.15727 -1.198057,-2.1976 -0.13291,-3.38971 0.634457,-0.71008 0.958529,-0.85806 1.87916,-0.85806 0.920631,0 1.244704,0.14798 1.879161,0.85806 1.065147,1.19211 1.024356,2.23244 -0.132911,3.38971 -0.648229,0.64823 -1.136152,0.89958 -1.74625,0.89958 -0.610097,0 -1.098021,-0.25135 -1.74625,-0.89958 z m 0,-10.58333 c -1.220634,-1.22064 -1.220634,-2.27187 0,-3.4925 0.648229,-0.64823 1.136153,-0.89959 1.74625,-0.89959 1.176462,0 2.645834,1.46937 2.645834,2.64584 0,1.17646 -1.469372,2.64583 -2.645834,2.64583 -0.610097,0 -1.098021,-0.25135 -1.74625,-0.89958 z m 14.975417,-1.74625 v -2.64584 h 39.687504 39.6875 v 2.64584 2.64583 H 111.88095 72.193446 Z M 57.218029,126.3891 c -1.220634,-1.22063 -1.220634,-2.27186 0,-3.4925 0.648229,-0.64823 1.136153,-0.89958 1.74625,-0.89958 1.176462,0 2.645834,1.46937 2.645834,2.64583 0,1.17647 -1.469372,2.64584 -2.645834,2.64584 -0.610097,0 -1.098021,-0.25136 -1.74625,-0.89959 z m 0,-10.58333 c -1.157266,-1.15727 -1.198057,-2.1976 -0.13291,-3.38971 0.634457,-0.71008 0.958529,-0.85806 1.87916,-0.85806 0.920631,0 1.244704,0.14798 1.879161,0.85806 1.065147,1.19211 1.024356,2.23244 -0.132911,3.38971 -0.648229,0.64823 -1.136152,0.89958 -1.74625,0.89958 -0.610097,0 -1.098021,-0.25135 -1.74625,-0.89958 z m 14.975417,-7.84282 c 0,-1.8231 0.872165,-4.98742 2.01752,-7.3198 1.418904,-2.889438 3.730511,-5.53606 6.29412,-7.206317 l 1.717212,-1.118809 -1.19302,-1.23394 C 79.48676,89.48866 78.038407,86.49128 77.67475,84.141867 c -1.296471,-8.37592 6.351236,-16.092321 14.749884,-14.882373 7.214394,1.039336 12.414526,7.870402 11.329176,14.882373 -0.35673,2.30464 -1.79547,5.304693 -3.33654,6.957299 l -1.164717,1.249021 1.680747,1.095049 c 4.42469,2.882797 7.64744,8.224274 8.19671,13.585454 l 0.17818,1.73916 h -2.68237 -2.68237 v -0.87045 c 0,-0.47875 -0.18231,-1.57038 -0.40513,-2.42585 -2.57483,-9.885413 -15.019428,-13.270506 -22.195127,-6.037353 -2.199627,2.217243 -3.85808,5.855273 -3.85808,8.463203 v 0.87045 H 74.83928 72.193446 Z M 94.286155,89.385917 c 1.567241,-0.804577 2.753545,-2.000909 3.606324,-3.636814 0.509283,-0.976972 0.620564,-1.594194 0.620122,-3.439584 -5.29e-4,-1.921888 -0.102378,-2.441353 -0.700804,-3.571875 -0.834777,-1.577028 -2.03498,-2.760295 -3.657934,-3.606324 -1.7131,-0.893021 -5.166066,-0.893021 -6.879167,0 -1.622954,0.846029 -2.823157,2.029296 -3.657933,3.606324 -0.598427,1.130522 -0.700347,1.649987 -0.700805,3.571875 -5.29e-4,1.84539 0.11084,2.462612 0.620123,3.439584 1.08571,2.082739 2.789058,3.518445 5.061532,4.266221 1.294387,0.425926 4.275312,0.0961 5.688542,-0.629407 z m 25.532295,16.736103 v -2.64583 h 15.875 15.875 v 2.64583 2.64583 h -15.875 -15.875 z m -62.600421,-0.89958 c -1.220634,-1.22064 -1.220634,-2.27187 0,-3.4925 0.648229,-0.64823 1.136153,-0.89959 1.74625,-0.89959 1.176462,0 2.645834,1.46937 2.645834,2.64584 0,1.17646 -1.469372,2.64583 -2.645834,2.64583 -0.610097,0 -1.098021,-0.25135 -1.74625,-0.89958 z m 0,-10.583337 c -1.220634,-1.220634 -1.220634,-2.271866 0,-3.4925 0.648229,-0.648229 1.136153,-0.899584 1.74625,-0.899584 1.176462,0 2.645834,1.469372 2.645834,2.645834 0,1.176462 -1.469372,2.645833 -2.645834,2.645833 -0.610097,0 -1.098021,-0.251354 -1.74625,-0.899583 z m 62.600421,-4.392084 v -2.645833 h 15.875 15.875 v 2.645833 2.645834 h -15.875 -15.875 z m -62.600421,-6.19125 c -1.157266,-1.157266 -1.198057,-2.1976 -0.13291,-3.389709 0.634457,-0.710078 0.958529,-0.858057 1.87916,-0.858057 0.920631,0 1.244704,0.147979 1.879161,0.858057 1.065147,1.192109 1.024356,2.232443 -0.132911,3.389709 -0.648229,0.648229 -1.136152,0.899584 -1.74625,0.899584 -0.610097,0 -1.098021,-0.251355 -1.74625,-0.899584 z m 62.600421,-9.68375 v -2.645833 h 15.875 15.875 v 2.645833 2.645834 h -15.875 -15.875 z M 57.218029,73.472436 c -1.220634,-1.220634 -1.220634,-2.271866 0,-3.4925 0.648229,-0.648229 1.136153,-0.899584 1.74625,-0.899584 1.176462,0 2.645834,1.469372 2.645834,2.645834 0,1.176462 -1.469372,2.645833 -2.645834,2.645833 -0.610097,0 -1.098021,-0.251354 -1.74625,-0.899583 z m 0,-10.583334 c -1.220634,-1.220634 -1.220634,-2.271866 0,-3.4925 0.648229,-0.648229 1.136153,-0.899583 1.74625,-0.899583 1.176462,0 2.645834,1.469371 2.645834,2.645833 0,1.176462 -1.469372,2.645834 -2.645834,2.645834 -0.610097,0 -1.098021,-0.251355 -1.74625,-0.899584 z"
         id="path1675"
         inkscape:connector-curvature="0" />
      <path
         style="fill:#ffffff;fill-opacity:1;stroke-width:0.26458335"
         d="M 40.443446,129.93452 V 47.913685 h 66.145834 66.14583 v 82.020835 82.02083 H 106.58928 40.443446 Z m 127.000004,0 V 53.205352 H 106.58928 45.735112 v 76.729168 76.72917 h 60.854168 60.85417 z m -109.469686,71.1753 c -0.897369,-0.37591 -1.704139,-1.83611 -1.529223,-2.76779 0.449249,-2.39294 3.360899,-2.94388 4.646552,-0.87921 1.262742,2.02788 -0.91118,4.57118 -3.117329,3.647 z m 14.219682,-10.32113 v -2.64584 h 31.750004 31.75 v 2.64584 2.64583 h -31.75 -31.750004 z m -14.155208,-0.24011 c -1.686116,-0.72202 -2.131971,-2.90756 -0.853882,-4.18565 1.606653,-1.60665 4.28144,-0.49466 4.28144,1.77992 0,1.74231 -1.885821,3.06592 -3.427558,2.40573 z m 0,-10.58334 c -1.486265,-0.63644 -2.038477,-2.32379 -1.200772,-3.66909 1.400664,-2.24936 4.62833,-1.35793 4.62833,1.27829 0,1.72733 -1.893155,3.04786 -3.427558,2.3908 z m 14.155208,-7.69739 v -2.64583 h 39.687504 39.6875 v 2.64583 2.64584 h -39.6875 -39.687504 z m -14.219682,-2.90803 c -0.897369,-0.37591 -1.704139,-1.83611 -1.529223,-2.76779 0.449249,-2.39294 3.360899,-2.94388 4.646552,-0.87921 1.262742,2.02788 -0.91118,4.57118 -3.117329,3.647 z m 0.06447,-10.56124 c -1.686116,-0.72202 -2.131971,-2.90756 -0.853882,-4.18565 1.606653,-1.60665 4.28144,-0.49466 4.28144,1.77992 0,1.74231 -1.885821,3.06592 -3.427558,2.40573 z m 14.155208,-5.05156 v -2.64583 h 31.750008 31.75 v 2.64583 2.64583 h -31.75 -31.750008 z m -14.155208,-5.53178 c -1.486265,-0.63644 -2.038477,-2.32379 -1.200772,-3.66909 1.400664,-2.24937 4.62833,-1.35793 4.62833,1.27828 0,1.72734 -1.893155,3.04786 -3.427558,2.39081 z m -0.06447,-10.60542 c -0.897369,-0.37591 -1.704139,-1.83611 -1.529223,-2.76779 0.449249,-2.39294 3.360899,-2.94388 4.646552,-0.87921 1.262742,2.02788 -0.91118,4.57118 -3.117329,3.647 z m 14.219682,-2.38363 v -2.64584 h 39.687504 39.6875 v 2.64584 2.64583 h -39.6875 -39.687504 z m -14.155208,-8.17762 c -1.686116,-0.72201 -2.131971,-2.90755 -0.853882,-4.18564 1.606653,-1.60665 4.28144,-0.49467 4.28144,1.77992 0,1.74231 -1.885821,3.06592 -3.427558,2.40572 z m 0,-10.58333 c -1.486265,-0.63644 -2.038477,-2.32379 -1.200772,-3.66909 1.400664,-2.24937 4.62833,-1.35793 4.62833,1.27828 0,1.72734 -1.893155,3.04786 -3.427558,2.39081 z m 14.155208,-8.33557 c 0,-1.3568 0.798767,-4.7135 1.543325,-6.4856 1.431206,-3.406372 3.90021,-6.317662 7.124764,-8.401057 l 1.39205,-0.899406 -0.967182,-0.982149 c -2.494865,-2.533465 -3.675081,-5.561164 -3.631644,-9.316522 0.02492,-2.155127 0.142766,-2.786899 0.826389,-4.43058 1.523216,-3.662379 4.123967,-6.214081 7.792095,-7.645141 1.645896,-0.642117 2.294713,-0.750679 4.441037,-0.743069 2.110563,0.0075 2.8243,0.128706 4.451868,0.756121 5.366332,2.068674 8.626612,6.72755 8.626612,12.327252 0,3.448402 -0.99845,6.04248 -3.29136,8.551281 l -1.350277,1.47742 1.139387,0.710012 c 4.45626,2.776911 7.58253,7.324328 8.56481,12.458238 0.66363,3.46847 0.80751,3.26138 -2.26604,3.26138 h -2.64583 v -0.87045 c 0,-1.27933 -0.71706,-3.83507 -1.50028,-5.34726 -2.19112,-4.230492 -6.0446,-6.642691 -11.083209,-6.937865 -6.45142,-0.377939 -11.845507,3.562384 -13.467302,9.837725 -0.22415,0.86732 -0.407546,1.96865 -0.407546,2.4474 v 0.87045 H 74.83928 c -2.620103,0 -2.645834,-0.006 -2.645834,-0.63818 z M 94.191781,89.478156 c 3.541654,-1.688724 5.260247,-5.818778 4.044238,-9.718945 -0.687784,-2.205958 -2.859887,-4.377169 -5.001932,-4.999879 -5.223735,-1.518581 -10.016255,1.715061 -10.395395,7.014049 -0.187513,2.620716 0.42522,4.246205 2.295557,6.089774 0.838946,0.82694 1.994239,1.656676 2.669614,1.917325 1.649643,0.636651 4.7238,0.491159 6.387918,-0.302324 z m 25.626669,16.643864 v -2.64583 h 15.875 15.875 v 2.64583 2.64583 h -15.875 -15.875 z m -61.844686,-0.2622 c -0.897369,-0.37591 -1.704139,-1.83611 -1.529223,-2.76779 0.449249,-2.39294 3.360899,-2.94388 4.646552,-0.87921 1.262742,2.02788 -0.91118,4.57118 -3.117329,3.647 z m 0.06447,-10.561246 c -1.686116,-0.722019 -2.131971,-2.907556 -0.853882,-4.185645 1.606653,-1.606653 4.28144,-0.494665 4.28144,1.779924 0,1.742305 -1.885821,3.065915 -3.427558,2.405721 z m 61.780216,-5.051555 v -2.645833 h 15.875 15.875 v 2.645833 2.645834 h -15.875 -15.875 z M 58.038238,84.715241 c -1.486265,-0.63644 -2.038477,-2.323788 -1.200772,-3.669089 1.400664,-2.249368 4.62833,-1.357934 4.62833,1.278282 0,1.727337 -1.893155,3.04786 -3.427558,2.390807 z M 119.81845,74.372019 v -2.645833 h 15.875 15.875 v 2.645833 2.645834 h -15.875 -15.875 z M 57.973764,74.109822 c -0.897369,-0.375914 -1.704139,-1.83611 -1.529223,-2.767793 0.449249,-2.392944 3.360899,-2.943878 4.646552,-0.87921 1.262742,2.027878 -0.91118,4.571177 -3.117329,3.647003 z m 0.06447,-10.561248 c -1.686116,-0.722019 -2.131971,-2.907557 -0.853882,-4.185645 1.606653,-1.606654 4.28144,-0.494665 4.28144,1.779923 0,1.742305 -1.885821,3.065915 -3.427558,2.405722 z"
         id="path1673"
         inkscape:connector-curvature="0" />
      <path
         style="fill:#ffffff;fill-opacity:1;stroke-width:0.26458335"
         d="M 40.443446,129.93452 V 47.913685 h 66.145834 66.14583 v 82.020835 82.02083 H 106.58928 40.443446 Z m 127.000004,0 V 53.205352 H 106.58928 45.735112 v 76.729168 76.72917 h 60.854168 60.85417 z M 57.974357,200.97634 c -0.525016,-0.22688 -1.031439,-0.73509 -1.305775,-1.31039 -0.419618,-0.87994 -0.419946,-0.99889 -0.0052,-1.8687 0.269063,-0.56423 0.807691,-1.10286 1.371923,-1.37192 0.868693,-0.41425 0.989184,-0.41425 1.857878,0 1.292246,0.61622 1.922287,1.95998 1.451678,3.09613 -0.588753,1.42138 -2.019231,2.03884 -3.37054,1.45488 z m 14.219089,-10.18765 v -2.64584 h 31.750004 31.75 v 2.64584 2.64583 h -31.75 -31.750004 z m -14.219089,-0.39568 c -0.525016,-0.22688 -1.031439,-0.7351 -1.305775,-1.31039 -0.421182,-0.88322 -0.421155,-0.99636 5.29e-4,-1.88043 0.629217,-1.31948 1.941233,-1.8602 3.218617,-1.32647 1.28579,0.53724 1.936668,1.90504 1.45727,3.06241 -0.588754,1.42138 -2.019232,2.03884 -3.370541,1.45488 z m -0.232281,-10.6929 c -1.78082,-1.0859 -1.616654,-3.60737 0.286639,-4.40262 0.821301,-0.34316 1.048335,-0.34378 1.858913,-0.005 1.291875,0.53978 1.936953,1.90436 1.452798,3.07321 -0.350499,0.84618 -1.632585,1.83778 -2.376147,1.83778 -0.218281,0 -0.768273,-0.22647 -1.222203,-0.50326 z m 14.45137,-7.43226 v -2.64583 h 39.687504 39.6875 v 2.64583 2.64584 h -39.6875 -39.687504 z m -14.219089,-3.04151 c -0.525016,-0.22688 -1.031439,-0.73509 -1.305775,-1.31039 -0.419618,-0.87994 -0.419946,-0.99889 -0.0052,-1.8687 0.269063,-0.56423 0.807691,-1.10286 1.371923,-1.37192 0.868693,-0.41425 0.989184,-0.41425 1.857878,0 1.292246,0.61622 1.922287,1.95998 1.451678,3.09613 -0.588753,1.42138 -2.019231,2.03884 -3.37054,1.45488 z m 0,-10.58333 c -0.525016,-0.22688 -1.031439,-0.7351 -1.305775,-1.31039 -0.421182,-0.88322 -0.421155,-0.99636 5.29e-4,-1.88043 0.629217,-1.31948 1.941233,-1.8602 3.218617,-1.32647 1.28579,0.53723 1.936668,1.90504 1.45727,3.06241 -0.588754,1.42138 -2.019232,2.03884 -3.370541,1.45488 z m 14.219089,-4.89599 v -2.64583 h 31.750004 31.75 v 2.64583 2.64583 h -31.75 -31.750004 z m -14.45137,-5.79691 c -1.78082,-1.08591 -1.616654,-3.60737 0.286639,-4.40262 0.821301,-0.34316 1.048335,-0.34378 1.858913,-0.005 1.291875,0.53978 1.936953,1.90436 1.452798,3.07321 -0.350499,0.84618 -1.632585,1.83778 -2.376147,1.83778 -0.218281,0 -0.768273,-0.22647 -1.222203,-0.50326 z m 0.232281,-10.47377 c -0.525016,-0.22688 -1.031439,-0.73509 -1.305775,-1.31039 -0.419618,-0.87994 -0.419946,-0.99889 -0.0052,-1.8687 0.269063,-0.56423 0.807691,-1.10286 1.371923,-1.37192 0.868693,-0.41426 0.989184,-0.41426 1.857878,0 1.292246,0.61622 1.922287,1.95998 1.451678,3.09613 -0.588753,1.42138 -2.019231,2.03884 -3.37054,1.45488 z m 14.219089,-2.25015 v -2.64584 h 39.687504 39.6875 v 2.64584 2.64583 H 111.88095 72.193446 Z M 57.974357,126.893 c -0.525016,-0.22688 -1.031439,-0.73509 -1.305775,-1.31038 -0.421182,-0.88322 -0.421155,-0.99636 5.29e-4,-1.88043 0.629217,-1.31948 1.941233,-1.8602 3.218617,-1.32647 1.28579,0.53723 1.936668,1.90504 1.45727,3.06241 -0.588754,1.42138 -2.019232,2.03884 -3.370541,1.45487 z m -0.232281,-10.69289 c -1.78082,-1.08591 -1.616654,-3.60737 0.286639,-4.40262 0.821301,-0.34316 1.048335,-0.34379 1.858913,-0.005 1.291875,0.53978 1.936953,1.90436 1.452798,3.07321 -0.350499,0.84618 -1.632585,1.83778 -2.376147,1.83778 -0.218281,0 -0.768273,-0.22647 -1.222203,-0.50327 z m 14.571991,-8.95361 c 0.723072,-6.05777 3.492765,-10.541935 8.685943,-14.062616 l 1.265939,-0.858234 -1.312656,-1.436254 c -1.674048,-1.831676 -2.595288,-3.72549 -3.12828,-6.430896 -0.388681,-1.97289 -0.388398,-2.326508 0.0035,-4.315484 0.558718,-2.835979 1.6702,-5.03632 3.480861,-6.890867 4.155493,-4.256207 9.98915,-5.239314 15.379332,-2.591774 2.125504,1.044001 4.625954,3.540686 5.670014,5.661457 0.44802,0.910076 1.00667,2.629609 1.24142,3.821184 0.3876,1.967407 0.38941,2.356408 0.0197,4.232984 -0.5294,2.687145 -1.51665,4.732226 -3.14403,6.51284 l -1.313156,1.43681 1.265936,0.860806 c 3.36374,2.287259 5.10453,4.2302 6.78948,7.577904 1.07594,2.1377 1.59383,3.88871 1.87806,6.34985 l 0.19098,1.65364 h -2.67181 -2.67181 v -0.78072 c -2e-5,-1.36657 -0.561,-3.53476 -1.33827,-5.1724 -4.087134,-8.611182 -16.665576,-9.843632 -22.435417,-2.19825 -1.60569,2.12763 -2.684666,5.08992 -2.684666,7.37065 v 0.78072 H 74.808794 72.132473 Z M 93.69956,89.716614 c 5.169779,-1.93426 6.63384,-8.981 2.705622,-13.022574 -3.020936,-3.108119 -8.360868,-3.108119 -11.381804,0 -3.030953,3.118421 -3.007564,8.196619 0.05184,11.256026 2.207139,2.207138 5.593081,2.90069 8.62434,1.766548 z m 26.11889,16.405406 v -2.64583 h 15.875 15.875 v 2.64583 2.64583 h -15.875 -15.875 z m -61.844093,-0.39568 c -0.525016,-0.22688 -1.031439,-0.73509 -1.305775,-1.31039 -0.419618,-0.87994 -0.419946,-0.99889 -0.0052,-1.8687 0.269063,-0.56423 0.807691,-1.10286 1.371923,-1.37193 0.868693,-0.41425 0.989184,-0.41425 1.857878,0 1.292246,0.61623 1.922287,1.95999 1.451678,3.09614 -0.588753,1.42138 -2.019231,2.03884 -3.37054,1.45488 z m 0,-10.583336 c -0.525016,-0.22688 -1.031439,-0.735091 -1.305775,-1.310386 -0.421182,-0.883221 -0.421155,-0.996362 5.29e-4,-1.880433 0.629217,-1.31948 1.941233,-1.860193 3.218617,-1.326467 1.28579,0.537236 1.936668,1.905039 1.45727,3.062409 -0.588754,1.421381 -2.019232,2.038839 -3.370541,1.454877 z m 61.844093,-4.895985 v -2.645833 h 15.875 15.875 v 2.645833 2.645834 h -15.875 -15.875 z M 57.742076,84.450107 c -1.78082,-1.085903 -1.616654,-3.607372 0.286639,-4.402619 0.821301,-0.343162 1.048335,-0.343784 1.858913,-0.0051 1.291875,0.539782 1.936953,1.904355 1.452798,3.073207 -0.350499,0.84618 -1.632585,1.837783 -2.376147,1.837783 -0.218281,0 -0.768273,-0.22647 -1.222203,-0.503267 z M 119.81845,74.372019 v -2.645833 h 15.875 15.875 v 2.645833 2.645834 h -15.875 -15.875 z M 57.974357,73.976337 c -0.525016,-0.22688 -1.031439,-0.735091 -1.305775,-1.310386 -0.419618,-0.879946 -0.419946,-0.998894 -0.0052,-1.868704 0.269063,-0.564232 0.807691,-1.10286 1.371923,-1.371923 0.868693,-0.41425 0.989184,-0.41425 1.857878,0 1.292246,0.616228 1.922287,1.959983 1.451678,3.096136 -0.588753,1.421381 -2.019231,2.038839 -3.37054,1.454877 z m 0,-10.583333 c -0.525016,-0.22688 -1.031439,-0.735092 -1.305775,-1.310386 -0.421182,-0.883222 -0.421155,-0.996363 5.29e-4,-1.880434 0.629217,-1.319479 1.941233,-1.860192 3.218617,-1.326467 1.28579,0.537236 1.936668,1.90504 1.45727,3.062409 -0.588754,1.421382 -2.019232,2.03884 -3.370541,1.454878 z"
         id="path1671"
         inkscape:connector-curvature="0" />
    </g>
  </g>
</svg>
