<svg xmlns="http://www.w3.org/2000/svg" viewBox="0 0 28.594 35.42"><path d="M1.397.397h25.8v26.95l-7.675 7.676H1.397Z" fill="none" stroke="#fff" stroke-width=".794"/><g transform="matrix(1.12855 0 0 1.12855 -32.31 -197.317)" fill="#fff" paint-order="stroke markers fill"><path d="M39.146 186.498a3.448 3.448 0 0 0-1.733-2.991 3.448 3.448 0 0 0-3.457.015 3.448 3.448 0 0 0-1.706 3.007l3.448-.03z"/><circle cx="35.698" cy="181.511" r="2.346"/></g><path d="M4.297 17.797h19.8M4.297 21.697h19.8M4.297 25.947h10.55M4.297 30.198h10.55" fill="none" stroke="#fff" stroke-width=".198"/><text xml:space="preserve" style="line-height:1.25" x="69.226" y="194.087" font-weight="400" font-size="7.92" font-family="sans-serif" letter-spacing="0" word-spacing="0" fill="#fff" stroke-width=".198" transform="translate(-55.677 -182.169)"><tspan x="69.226" y="194.087">CV</tspan></text><path d="M19.522 35.023v-7.707" fill="none" stroke="#fff" stroke-width=".198"/><path d="M27.197 27.347h-7.675v7.676" fill="none" stroke="#fffefe" stroke-width=".794" stroke-linecap="round" stroke-linejoin="round"/></svg>