<?xml version="1.0" encoding="UTF-8" standalone="no"?>
<!-- Created with Inkscape (http://www.inkscape.org/) -->

<svg
   xmlns:dc="http://purl.org/dc/elements/1.1/"
   xmlns:cc="http://creativecommons.org/ns#"
   xmlns:rdf="http://www.w3.org/1999/02/22-rdf-syntax-ns#"
   xmlns:svg="http://www.w3.org/2000/svg"
   xmlns="http://www.w3.org/2000/svg"
   xmlns:sodipodi="http://sodipodi.sourceforge.net/DTD/sodipodi-0.dtd"
   xmlns:inkscape="http://www.inkscape.org/namespaces/inkscape"
   width="4.8691583mm"
   height="4.8679743mm"
   viewBox="0 0 4.8691583 4.8679743"
   version="1.1"
   id="svg1062"
   inkscape:version="0.92.5 (2060ec1f9f, 2020-04-08)"
   sodipodi:docname="gitbash.svg">
  <defs
     id="defs1056" />
  <sodipodi:namedview
     id="base"
     pagecolor="#ffffff"
     bordercolor="#666666"
     borderopacity="1.0"
     inkscape:pageopacity="0.0"
     inkscape:pageshadow="2"
     inkscape:zoom="22.4"
     inkscape:cx="5.5187592"
     inkscape:cy="12.846548"
     inkscape:document-units="px"
     inkscape:current-layer="layer1"
     showgrid="false"
     fit-margin-top="0"
     fit-margin-left="0"
     fit-margin-right="0"
     fit-margin-bottom="0"
     inkscape:window-width="2560"
     inkscape:window-height="1424"
     inkscape:window-x="0"
     inkscape:window-y="50"
     inkscape:window-maximized="1" />
  <metadata
     id="metadata1059">
    <rdf:RDF>
      <cc:Work
         rdf:about="">
        <dc:format>image/svg+xml</dc:format>
        <dc:type
           rdf:resource="http://purl.org/dc/dcmitype/StillImage" />
        <dc:title></dc:title>
      </cc:Work>
    </rdf:RDF>
  </metadata>
  <g
     inkscape:label="Layer 1"
     inkscape:groupmode="layer"
     id="layer1"
     transform="translate(-157.73051,-232.57542)">
    <path
       style="fill:#f34f29;fill-opacity:1;stroke-width:0.01498551"
       d="m 160.03792,237.42075 c -0.0667,-0.0285 -2.23762,-2.19328 -2.2788,-2.27231 -0.0356,-0.0683 -0.0384,-0.19994 -0.006,-0.27831 0.0159,-0.0383 0.25607,-0.28893 0.7678,-0.80125 0.40959,-0.41004 0.7516,-0.74553 0.76004,-0.74553 0.008,0 0.13866,0.12346 0.28939,0.27436 0.26487,0.26516 0.27353,0.27574 0.25835,0.31567 -0.0533,0.1403 0.0304,0.35141 0.16787,0.42322 l 0.0412,0.0215 v 0.67805 0.67805 l -0.0525,0.0283 c -0.13585,0.0732 -0.20274,0.25524 -0.15388,0.41888 0.0251,0.0841 0.14999,0.21099 0.22884,0.23249 0.24626,0.0671 0.47372,-0.0955 0.476,-0.34046 0.001,-0.11437 -0.0419,-0.20761 -0.12947,-0.28079 l -0.0693,-0.0579 v -0.66368 c 0,-0.36503 0.005,-0.66368 0.0114,-0.66368 0.006,0 0.11923,0.10797 0.25101,0.23995 l 0.23959,0.23995 v 0.14827 c 0,0.14083 0.002,0.15153 0.0454,0.21295 0.16507,0.23525 0.49437,0.21912 0.62482,-0.0306 0.13359,-0.25572 -0.0718,-0.5511 -0.36208,-0.52076 l -0.0847,0.009 -0.2747,-0.27501 c -0.17243,-0.17262 -0.27063,-0.2816 -0.26376,-0.29272 0.0207,-0.0336 0.009,-0.18088 -0.0193,-0.24445 -0.0621,-0.13891 -0.18475,-0.21166 -0.35848,-0.21263 l -0.10846,-6e-4 -0.26993,-0.26959 c -0.14846,-0.14827 -0.26992,-0.27667 -0.26992,-0.28533 0,-0.0306 0.4721,-0.485 0.52819,-0.50844 0.0751,-0.0314 0.20005,-0.0288 0.27353,0.006 0.085,0.0399 2.2454,2.205 2.27728,2.28225 0.0322,0.078 0.0293,0.19917 -0.007,0.27298 -0.0422,0.0868 -2.19002,2.23157 -2.26643,2.26321 -0.0701,0.029 -0.19795,0.0288 -0.26647,-5.7e-4 z"
       id="path1716"
       inkscape:connector-curvature="0" />
    <path
       style="fill:#000000;stroke-width:0.26458335"
       d=""
       id="path1714"
       inkscape:connector-curvature="0" />
    <path
       style="fill:#000000;stroke-width:0.26458335"
       d=""
       id="path1712"
       inkscape:connector-curvature="0" />
    <path
       style="fill:#000000;stroke-width:0.26458335"
       d=""
       id="path1692"
       inkscape:connector-curvature="0" />
    <path
       style="fill:#000000;stroke-width:0.26458335"
       d=""
       id="path1688"
       inkscape:connector-curvature="0" />
  </g>
</svg>
