<?xml version="1.0" encoding="UTF-8" standalone="no"?>
<!-- Created with Inkscape (http://www.inkscape.org/) -->

<svg
   xmlns:dc="http://purl.org/dc/elements/1.1/"
   xmlns:cc="http://creativecommons.org/ns#"
   xmlns:rdf="http://www.w3.org/1999/02/22-rdf-syntax-ns#"
   xmlns:svg="http://www.w3.org/2000/svg"
   xmlns="http://www.w3.org/2000/svg"
   xmlns:sodipodi="http://sodipodi.sourceforge.net/DTD/sodipodi-0.dtd"
   xmlns:inkscape="http://www.inkscape.org/namespaces/inkscape"
   width="26.458334mm"
   height="26.45833mm"
   viewBox="0 0 26.458334 26.45833"
   version="1.1"
   id="svg8"
   inkscape:version="0.92.5 (2060ec1f9f, 2020-04-08)"
   sodipodi:docname="jslogo.svg">
  <defs
     id="defs2" />
  <sodipodi:namedview
     id="base"
     pagecolor="#ffffff"
     bordercolor="#666666"
     borderopacity="1.0"
     inkscape:pageopacity="0.0"
     inkscape:pageshadow="2"
     inkscape:zoom="1.979899"
     inkscape:cx="136.13375"
     inkscape:cy="-57.964016"
     inkscape:document-units="px"
     inkscape:current-layer="layer1"
     showgrid="false"
     fit-margin-top="0"
     fit-margin-left="0"
     fit-margin-right="0"
     fit-margin-bottom="0"
     inkscape:window-width="2560"
     inkscape:window-height="1424"
     inkscape:window-x="0"
     inkscape:window-y="50"
     inkscape:window-maximized="1" />
  <metadata
     id="metadata5">
    <rdf:RDF>
      <cc:Work
         rdf:about="">
        <dc:format>image/svg+xml</dc:format>
        <dc:type
           rdf:resource="http://purl.org/dc/dcmitype/StillImage" />
        <dc:title />
      </cc:Work>
    </rdf:RDF>
  </metadata>
  <g
     inkscape:label="Layer 1"
     inkscape:groupmode="layer"
     id="layer1"
     transform="translate(24.914573,-247.63866)">
    <path
       style="fill:#f0db4f;stroke-width:0.02515051;fill-opacity:1"
       d="m -24.914573,260.86783 v -13.22917 h 13.229167 13.229167 v 13.22917 13.22916 h -13.229167 -13.229167 z m 11.15425,11.11609 c 1.646132,-0.15197 2.720437,-1.01199 3.078338,-2.46432 0.143859,-0.58377 0.137456,-0.35791 0.146889,-5.181 0.0048,-2.44149 0.0023,-4.46453 -0.0054,-4.49566 l -0.01409,-0.0566 h -1.229205 c -1.097673,0 -1.230839,0.004 -1.244471,0.0398 -0.0084,0.0219 -0.01527,2.00862 -0.01527,4.41497 0,4.84286 0.0087,4.57753 -0.162458,4.94289 -0.189575,0.40462 -0.532784,0.58558 -1.112693,0.58667 -0.28406,5.4e-4 -0.448821,-0.0322 -0.661438,-0.13146 -0.235056,-0.10973 -0.540421,-0.42649 -0.754516,-0.78267 -0.208027,-0.34609 -0.216243,-0.35503 -0.285776,-0.31097 -0.02957,0.0187 -0.475268,0.288 -0.990451,0.59836 -0.705414,0.42497 -0.936734,0.57612 -0.936856,0.61218 -1.01e-4,0.0263 0.0412,0.12254 0.09175,0.21378 0.403532,0.72834 1.022761,1.32084 1.72079,1.64651 0.67624,0.31551 1.521443,0.44631 2.374855,0.36752 z m 9.944084,-0.0369 c 0.530003,-0.0768 0.940009,-0.19684 1.378182,-0.40343 0.957242,-0.4513 1.56048196,-1.1893 1.79835496,-2.20007 0.07271,-0.30897 0.09145,-1.06837 0.03574,-1.44827 -0.109044,-0.74356 -0.386529,-1.30893 -0.89230396,-1.81804 -0.544912,-0.5485 -1.233876,-0.95702 -2.60626,-1.54536 -0.948434,-0.4066 -1.237354,-0.55598 -1.5015698,-0.77639 -0.388427,-0.32402 -0.508199,-0.90786 -0.279414,-1.36204 0.183969,-0.36521 0.5713788,-0.5699 1.0786208,-0.5699 0.635725,0 1.042753,0.23171 1.430389,0.81429 0.07937,0.11928 0.15454,0.21688 0.16705,0.21688 0.04181,0 1.909206,-1.21205 1.909206,-1.23919 0,-0.0733 -0.40874,-0.62878 -0.637294,-0.86608 -0.324498,-0.3369 -0.582135,-0.52833 -0.959764,-0.71313 -0.49471,-0.24209 -1.020871,-0.36361 -1.696073,-0.39172 -1.7934978,-0.0747 -3.2139548,0.77834 -3.6969748,2.22006 -0.115339,0.34426 -0.160307,0.64708 -0.160093,1.07808 6.99e-4,1.40594 0.551726,2.359 1.81609,3.1411 0.324702,0.20085 0.783819,0.42494 1.5238068,0.74375 1.210343,0.52145 1.595844,0.7432 1.829225,1.05222 0.166813,0.22088 0.229676,0.43664 0.216257,0.74224 -0.0085,0.19472 -0.02283,0.25815 -0.09078,0.40327 -0.153717,0.32829 -0.485141,0.57225 -0.950142,0.69939 -0.169473,0.0463 -0.266449,0.0546 -0.639879,0.0547 -0.396116,8e-5 -0.465287,-0.007 -0.691639,-0.0665 -0.6248578,-0.16545 -1.1463348,-0.55482 -1.5684368,-1.17111 -0.08643,-0.12618 -0.170661,-0.22921 -0.187192,-0.22895 -0.01653,2.7e-4 -0.465789,0.25317 -0.998351,0.56201 -0.693355,0.40209 -0.970374,0.57537 -0.975618,0.61026 -0.0082,0.0545 0.193118,0.3994 0.38377,0.65755 0.189041,0.25596 0.600742,0.66865 0.868831,0.87091 0.558397,0.42128 1.198743,0.70575 1.933018,0.85873 0.248827,0.0518 0.4362598,0.0781 0.8709358,0.12226 0.199769,0.0203 1.036978,-0.0105 1.292309,-0.0475 z"
       id="path882"
       inkscape:connector-curvature="0" />
  </g>
</svg>
